<?xml version="1.0" encoding="iso-8859-1"?>
<!-- Generator: Adobe Illustrator 19.0.0, SVG Export Plug-In . SVG Version: 6.00 Build 0)  -->
<svg version="1.1" id="Capa_1" xmlns="http://www.w3.org/2000/svg" xmlns:xlink="http://www.w3.org/1999/xlink" x="0px" y="0px"
	 viewBox="0 0 512.001 512.001" style="enable-background:new 0 0 512.001 512.001;" xml:space="preserve">
<path style="fill:#FC0023;" d="M346.811,108.667c-33.686,0-65.983,13.135-90.811,36.506c-24.828-23.371-57.126-36.506-90.811-36.506
	c-75.035,0-136.081,64.149-136.081,143c0,60.171,20.02,124.552,54.926,176.634C119.685,481.493,163.975,512,205.55,512
	c19.622,0,36.544-3.348,50.451-9.966c13.906,6.618,30.828,9.966,50.45,9.966c41.574,0,85.865-30.507,121.515-83.699
	c34.906-52.082,54.926-116.463,54.926-176.634C482.892,172.816,421.846,108.667,346.811,108.667z"/>
<path style="fill:#CC001C;" d="M256,145.173v356.862c13.906,6.618,30.828,9.966,50.45,9.966c41.574,0,85.865-30.507,121.515-83.699
	c34.906-52.082,54.926-116.463,54.926-176.634c0-78.851-61.046-143-136.081-143C313.125,108.667,280.827,121.802,256,145.173"/>
<polygon style="fill:#816244;" points="270.641,182.615 240.64,182.615 240.64,59.767 217.775,13.23 244.7,0 270.641,52.795 "/>
<path style="fill:#60DD4D;" d="M440.573,56.492l-0.206-13.791l-13.189-4.034c-0.786-0.24-19.523-5.905-43.576-7.524
	c-34.056-2.294-61.626,4.289-81.932,19.562c-20.352,15.307-34.242,40.17-41.286,73.899c-4.967,23.782-4.577,43.569-4.559,44.4
	l0.311,13.558l12.936,4.071c0.78,0.246,19.398,6.039,43.337,7.777c4.66,0.338,9.199,0.507,13.615,0.507
	c27.716,0,50.589-6.655,68.131-19.848c20.321-15.285,34.301-40.187,41.551-74.016C440.82,77.192,440.586,57.326,440.573,56.492z"/>
<path style="fill:#00C47A;" d="M256.137,182.561l12.936,4.071c0.78,0.246,19.398,6.039,43.337,7.777
	c4.66,0.338,9.199,0.507,13.615,0.507c27.716,0,50.589-6.655,68.131-19.848c20.321-15.285,34.301-40.187,41.551-74.016
	c5.114-23.86,4.879-43.727,4.867-44.561L440.368,42.7"/>
<g>
</g>
<g>
</g>
<g>
</g>
<g>
</g>
<g>
</g>
<g>
</g>
<g>
</g>
<g>
</g>
<g>
</g>
<g>
</g>
<g>
</g>
<g>
</g>
<g>
</g>
<g>
</g>
<g>
</g>
</svg>
