<?xml version="1.0" encoding="iso-8859-1"?>
<!-- Generator: Adobe Illustrator 19.0.0, SVG Export Plug-In . SVG Version: 6.00 Build 0)  -->
<svg version="1.1" id="Capa_1" xmlns="http://www.w3.org/2000/svg" xmlns:xlink="http://www.w3.org/1999/xlink" x="0px" y="0px"
	 viewBox="0 0 512.001 512.001" style="enable-background:new 0 0 512.001 512.001;" xml:space="preserve">
<path style="fill:#5B64B1;" d="M390.844,132.636c-4.201-11.203-11.36-21.074-20.703-28.549L268.638,22.884h-25.274L141.86,104.088
	c-9.342,7.475-16.501,17.346-20.703,28.549c-7.648,20.397-4.807,43.262,7.601,61.166c12.408,17.903,32.82,28.593,54.603,28.593
	h145.28c21.783,0,42.195-10.69,54.603-28.593C395.653,175.899,398.493,153.033,390.844,132.636z"/>
<path style="fill:#949DF0;" d="M309.874,398.227c11.5,24.421,36.339,41.372,65.071,41.372c27.14,0,51.679-15.021,64.042-39.2
	l-26.718-13.659c-7.207,14.096-21.508,22.853-37.324,22.853c-23.094,0-41.883-18.788-41.883-41.883v-56.886V281.76l5.578-20.92
	c11.393-42.721,11.352-87.874-0.117-130.575c-11.47-42.701-34.057-81.798-65.322-113.063L256.002,0l-17.202,17.201
	c-31.264,31.264-53.853,70.362-65.322,113.063c-11.469,42.701-11.51,87.854-0.117,130.575l5.578,20.92v29.064v56.886
	c0,23.094-18.788,41.883-41.883,41.883c-15.815,0-30.117-8.757-37.324-22.853l-26.718,13.659c12.362,24.18,36.902,39.2,64.042,39.2
	c28.734,0,53.572-16.951,65.071-41.372h13.012v41.884c0,23.094-18.788,41.883-41.883,41.883c-15.816,0-30.117-8.757-37.324-22.853
	l-26.718,13.659C121.576,496.979,146.116,512,173.256,512c39.64,0,71.89-32.25,71.89-71.89v-41.884h21.708v41.884
	c0,39.64,32.25,71.89,71.891,71.89c27.14,0,51.68-15.022,64.042-39.201l-26.718-13.659c-7.207,14.096-21.508,22.853-37.324,22.853
	c-23.094,0-41.884-18.788-41.884-41.883v-41.884h13.013V398.227z"/>
<circle style="fill:#816244;" cx="193.947" cy="290.139" r="31.027"/>
<path style="fill:#FFDB2D;" d="M193.943,336.168c-25.383,0-46.032-20.65-46.032-46.032c0-25.382,20.65-46.033,46.032-46.033
	s46.033,20.651,46.033,46.033C239.976,315.519,219.325,336.168,193.943,336.168z M193.943,274.111
	c-8.837,0-16.025,7.19-16.025,16.026c0,8.836,7.189,16.025,16.025,16.025s16.026-7.189,16.026-16.025
	C209.969,281.299,202.779,274.111,193.943,274.111z"/>
<path style="fill:#7985EC;" d="M309.874,398.227c11.5,24.421,36.339,41.372,65.071,41.372c27.14,0,51.679-15.021,64.042-39.2
	l-26.718-13.659c-7.207,14.096-21.508,22.853-37.324,22.853c-23.094,0-41.883-18.788-41.883-41.883v-56.886V281.76l5.578-20.92
	c11.393-42.721,11.352-87.874-0.117-130.575c-11.47-42.701-34.057-81.798-65.322-113.063L256.002,0l-0.001,0.007v398.22h10.854
	v41.884c0,39.64,32.25,71.89,71.891,71.89c27.14,0,51.68-15.022,64.042-39.201l-26.718-13.659
	c-7.207,14.096-21.508,22.853-37.324,22.853c-23.094,0-41.884-18.788-41.884-41.883v-41.884L309.874,398.227L309.874,398.227z"/>
<circle style="fill:#56412D;" cx="318.056" cy="290.139" r="31.027"/>
<path style="fill:#FFC42D;" d="M318.059,336.168c-25.382,0-46.033-20.65-46.033-46.032c0-25.382,20.651-46.033,46.033-46.033
	c25.382,0,46.032,20.651,46.032,46.033C364.092,315.519,343.442,336.168,318.059,336.168z M318.059,274.111
	c-8.837,0-16.026,7.19-16.026,16.026c0,8.836,7.19,16.025,16.026,16.025c8.836,0,16.025-7.189,16.025-16.025
	C334.085,281.299,326.896,274.111,318.059,274.111z"/>
<g>
</g>
<g>
</g>
<g>
</g>
<g>
</g>
<g>
</g>
<g>
</g>
<g>
</g>
<g>
</g>
<g>
</g>
<g>
</g>
<g>
</g>
<g>
</g>
<g>
</g>
<g>
</g>
<g>
</g>
</svg>
