<?xml version="1.0" encoding="iso-8859-1"?>
<!-- Generator: Adobe Illustrator 19.0.0, SVG Export Plug-In . SVG Version: 6.00 Build 0)  -->
<svg version="1.1" id="Capa_1" xmlns="http://www.w3.org/2000/svg" xmlns:xlink="http://www.w3.org/1999/xlink" x="0px" y="0px"
	 viewBox="0 0 511.999 511.999" style="enable-background:new 0 0 511.999 511.999;" xml:space="preserve">
<path style="fill:#FFC266;" d="M221.627,170.427L144.336,86.74c-38.165,4.322-71.75,24.803-92.181,57.492
	c-16.794,26.87-17.882,61.428-15.532,68.678v6.773l101.391,99.139h42.904l27.828-18.726L221.627,170.427z"/>
<path style="fill:#FFAE33;" d="M290.371,170.427l77.292-83.687c38.165,4.322,71.75,24.803,92.181,57.492
	c16.794,26.87,17.882,61.428,15.532,68.678v6.773l-101.391,99.139H331.08l-27.828-18.726L290.371,170.427z"/>
<g>
	<path style="fill:#FFD699;" d="M360.008,79.582c-28.741-25.148-65.58-38.989-103.764-38.989c-0.065,0-0.138,0-0.203,0
		c-38.255,0.049-75.143,13.99-103.866,39.253l-7.839,6.892l64.41,213.358h94.396l66.325-212.241L360.008,79.582z"/>
	<path style="fill:#FFD699;" d="M180.917,318.822L36.622,219.683c-42.82,49.957-49.733,114.06-12.001,167.964
		c19.264,27.519,47.72,47.542,80.128,56.38l114.192,27.379l17.195-68.778L180.917,318.822z"/>
</g>
<g>
	<path style="fill:#FFC266;" d="M475.377,219.683l-144.295,99.139l-55.219,83.805l17.195,68.778l113.739-27.262l0.453-0.116
		c32.407-8.838,60.864-28.862,80.128-56.381C525.11,333.744,518.197,269.64,475.377,219.683z"/>
	<path style="fill:#FFC266;" d="M360.008,79.582c-28.741-25.148-65.58-38.989-103.764-38.989c-0.065,0-0.138,0-0.203,0
		c-0.014,0-0.027,0-0.041,0v259.503h47.141l66.325-212.241L360.008,79.582z"/>
</g>
<g>
</g>
<g>
</g>
<g>
</g>
<g>
</g>
<g>
</g>
<g>
</g>
<g>
</g>
<g>
</g>
<g>
</g>
<g>
</g>
<g>
</g>
<g>
</g>
<g>
</g>
<g>
</g>
<g>
</g>
</svg>
