<?xml version="1.0" encoding="iso-8859-1"?>
<!-- Generator: Adobe Illustrator 19.0.0, SVG Export Plug-In . SVG Version: 6.00 Build 0)  -->
<svg version="1.1" id="Capa_1" xmlns="http://www.w3.org/2000/svg" xmlns:xlink="http://www.w3.org/1999/xlink" x="0px" y="0px"
	 viewBox="0 0 512 512" style="enable-background:new 0 0 512 512;" xml:space="preserve">
<path style="fill:#FFD699;" d="M496.109,239.843l-478-31.257h-0.003c-4.664-0.304-9.313,1.357-12.73,4.559
	C1.96,216.347,0,220.868,0,225.551v63.2c0,90.039,73.252,163.29,163.291,163.29h216.937C452.887,452.04,512,392.927,512,320.268
	v-63.46C512,247.878,505.021,240.427,496.109,239.843z"/>
<path style="fill:#FFC266;" d="M496.109,239.843l-240.378-15.719V452.04h124.497C452.887,452.04,512,392.927,512,320.268v-63.46
	C512,247.878,505.021,240.427,496.109,239.843z"/>
<path style="fill:#FC0023;" d="M380.228,137.597h-89.22l0,0c-12.639-37.916-48.4-63.262-88.362-62.626l-39.932,0.155
	C81.041,75.444,15,141.742,15,223.416l0,0c0,81.898,66.392,148.29,148.29,148.29h216.937c64.493,0,116.773-52.28,116.773-116.772
	v-0.564C497,189.878,444.72,137.597,380.228,137.597z"/>
<path style="fill:#CC001C;" d="M380.228,137.597h-89.22c-6.499-19.498-19.122-35.657-35.277-46.683v280.792h124.497
	c64.492,0,116.772-52.28,116.772-116.772v-0.564C497,189.878,444.72,137.597,380.228,137.597z"/>
<path style="fill:#FFEBCC;" d="M380.228,386.706H163.291C73.252,386.706,0,313.455,0,223.416c0-43.497,16.905-84.423,47.603-115.239
	c30.696-30.816,71.557-47.881,115.053-48.05l39.847-0.155c42.988-0.642,81.383,24.117,98.73,62.625h78.996
	C452.887,122.597,512,181.71,512,254.37v0.564C512,327.593,452.887,386.706,380.228,386.706z M204.134,89.96
	c-0.417,0-0.831,0.004-1.249,0.01l-0.181,0.002l-39.932,0.155c-35.505,0.138-68.858,14.067-93.916,39.222
	C43.8,154.504,30,187.91,30,223.416c0,73.497,59.794,133.291,133.291,133.291h216.937c56.117,0,101.772-45.655,101.772-101.772
	v-0.564c0-56.118-45.655-101.772-101.772-101.772H280.196l-3.419-10.256C266.29,110.878,237.196,89.96,204.134,89.96z"/>
<path style="fill:#FFE1B4;" d="M380.228,122.597h-78.996c-9.623-21.363-25.731-38.484-45.501-49.395v36.679
	c9.437,8.61,16.781,19.662,21.046,32.459l3.419,10.256h100.031C436.345,152.597,482,198.252,482,254.37v0.564
	c0,56.118-45.655,101.772-101.772,101.772H255.731v30h124.497c72.659,0,131.772-59.113,131.772-131.772v-0.564
	C512,181.71,452.887,122.597,380.228,122.597z"/>
<path style="fill:#FFD699;" d="M369,223.707c0,15.255-12.411,27.667-27.666,27.667H218.971c5.931-9.604,9.363-20.907,9.363-33
	c0-34.738-28.262-63-63-63s-63,28.262-63,63s28.262,63,63,63h176c31.797,0,57.666-25.869,57.666-57.666L369,223.707L369,223.707z
	 M132.334,218.374c0-18.196,14.804-33,33-33s33,14.804,33,33s-14.804,33-33,33S132.334,236.57,132.334,218.374z"/>
<path style="fill:#FFC266;" d="M369,223.707c0,15.255-12.411,27.667-27.666,27.667H256v30h85.334
	c31.797,0,57.666-25.869,57.666-57.666L369,223.707L369,223.707z"/>
<g>
</g>
<g>
</g>
<g>
</g>
<g>
</g>
<g>
</g>
<g>
</g>
<g>
</g>
<g>
</g>
<g>
</g>
<g>
</g>
<g>
</g>
<g>
</g>
<g>
</g>
<g>
</g>
<g>
</g>
</svg>
