<?xml version="1.0" encoding="iso-8859-1"?>
<!-- Generator: Adobe Illustrator 19.0.0, SVG Export Plug-In . SVG Version: 6.00 Build 0)  -->
<svg version="1.1" id="Capa_1" xmlns="http://www.w3.org/2000/svg" xmlns:xlink="http://www.w3.org/1999/xlink" x="0px" y="0px"
	 viewBox="0 0 512 512" style="enable-background:new 0 0 512 512;" xml:space="preserve">
<polygon style="fill:#AEADB3;" points="184.573,472.275 155.155,466.391 146.033,512 176.628,512 "/>
<polygon style="fill:#57575A;" points="150.16,363.713 91.197,316.543 91.197,177 170.197,177 170.197,207 121.197,207 
	121.197,302.124 168.9,340.287 "/>
<path style="fill:#E2F4FC;" d="M382.185,177c-3.211-25.973-14.581-51.698-32.281-72.36c-22.633-26.422-52.063-40.973-82.87-40.973
	c-64.01,0-116.085,52.076-116.085,116.085v304.581H383.12V268.945L420.803,177H382.185z"/>
<circle style="fill:#4BBAED;" cx="266.2" cy="32" r="32"/>
<path style="fill:#388CB2;" d="M266.197,64c17.673,0,32-14.327,32-32s-14.327-32-32-32"/>
<polygon style="fill:#838286;" points="379.239,466.391 349.821,472.275 357.766,512 388.361,512 "/>
<path style="fill:#C5E9F9;" d="M382.185,177c-3.211-25.973-14.581-51.698-32.281-72.36c-22.633-26.422-52.063-40.973-82.87-40.973
	c-0.28,0-0.558,0.009-0.837,0.011v420.655H383.12V268.945L420.803,177H382.185z"/>
<rect x="150.95" y="400.68" style="fill:#816244;" width="232.17" height="83.66"/>
<rect x="266.2" y="400.68" style="fill:#56412D;" width="116.92" height="83.66"/>
<polygon style="fill:#DFDEE0;" points="281.197,370.493 281.197,167.999 251.197,167.999 251.197,370.493 150.864,370.493 
	150.864,400.493 383.53,400.493 383.53,370.493 "/>
<polygon style="fill:#BEBDC2;" points="281.197,370.493 281.197,167.999 267.197,167.999 267.197,400.493 383.53,400.493 
	383.53,370.493 "/>
<path style="fill:#AEADB3;" d="M382.042,176.001c-3.376-25.633-14.665-50.964-32.138-71.361
	c-22.633-26.422-52.063-40.973-82.87-40.973c-62.754,0-114.03,50.054-116.018,112.334H382.042z"/>
<path style="fill:#838286;" d="M266.529,176.001h115.513c-3.376-25.633-14.665-50.964-32.138-71.361
	c-22.633-26.422-52.063-40.973-82.87-40.973c-0.169,0-0.336,0.006-0.505,0.006V176.001z"/>
<g>
</g>
<g>
</g>
<g>
</g>
<g>
</g>
<g>
</g>
<g>
</g>
<g>
</g>
<g>
</g>
<g>
</g>
<g>
</g>
<g>
</g>
<g>
</g>
<g>
</g>
<g>
</g>
<g>
</g>
</svg>
