<?xml version="1.0" encoding="iso-8859-1"?>
<!-- Generator: Adobe Illustrator 19.0.0, SVG Export Plug-In . SVG Version: 6.00 Build 0)  -->
<svg version="1.1" id="Capa_1" xmlns="http://www.w3.org/2000/svg" xmlns:xlink="http://www.w3.org/1999/xlink" x="0px" y="0px"
	 viewBox="0 0 512 512" style="enable-background:new 0 0 512 512;" xml:space="preserve">
<path style="fill:#FF5D00;" d="M308.073,90.921c-28.586,0-56.241,5.805-82.199,17.253c-23.682,10.445-44.876,25.086-63.057,43.554
	c-18.192,4.794-34.749,14.298-48.118,27.666c-18.817,18.817-29.863,43.811-31.104,70.376c-1.145,24.525,6.125,48.493,20.551,68.098
	v26.982c0,46.992,38.23,85.223,85.223,85.223h237.408c46.992,0,85.223-38.231,85.223-85.223v-50.003
	C512,182.402,420.519,90.921,308.073,90.921z"/>
<path style="fill:#E34400;" d="M309.312,90.936v339.138h117.465c46.992,0,85.223-38.231,85.223-85.223v-50.003
	C512,182.816,421.188,91.607,309.312,90.936z"/>
<path style="fill:#FFE1B4;" d="M230.097,268.591L100.205,138.699c7.743-14.612,5.465-33.142-6.839-45.445
	c-15.103-15.103-39.59-15.103-54.693,0c-4.983,4.983-8.311,10.989-10.005,17.34c-6.352,1.695-12.358,5.023-17.341,10.006
	c-15.103,15.103-15.103,39.59,0,54.692c12.304,12.304,30.833,14.582,45.446,6.839l129.892,129.892L230.097,268.591z"/>
<circle style="fill:#FFC42D;" cx="174.84" cy="255.47" r="107.3"/>
<path style="fill:#FF9900;" d="M174.836,362.773c59.261,0,107.301-48.04,107.301-107.301s-48.04-107.301-107.301-107.301V362.773z"
	/>
<g>
</g>
<g>
</g>
<g>
</g>
<g>
</g>
<g>
</g>
<g>
</g>
<g>
</g>
<g>
</g>
<g>
</g>
<g>
</g>
<g>
</g>
<g>
</g>
<g>
</g>
<g>
</g>
<g>
</g>
</svg>
