<?xml version="1.0" encoding="iso-8859-1"?>
<!-- Generator: Adobe Illustrator 19.0.0, SVG Export Plug-In . SVG Version: 6.00 Build 0)  -->
<svg version="1.1" id="Capa_1" xmlns="http://www.w3.org/2000/svg" xmlns:xlink="http://www.w3.org/1999/xlink" x="0px" y="0px"
	 viewBox="0 0 512 512" style="enable-background:new 0 0 512 512;" xml:space="preserve">
<path style="fill:#FFEBCC;" d="M123.819,245.188v56.229c0,52.564,42.764,95.328,95.328,95.328h197.523
	c52.564,0,95.328-42.764,95.328-95.328v-56.229L123.819,245.188L123.819,245.188z"/>
<path style="fill:#FFE1B4;" d="M313.971,245.188v151.557h102.7c52.564,0,95.328-42.764,95.328-95.328v-56.229L313.971,245.188
	L313.971,245.188z"/>
<path style="fill:#FF4F19;" d="M178.732,213.575c-0.339-2.693-8.771-66.23-51.29-89.243l0,0
	c-42.447-22.973-101.684,4.765-104.184,5.957l-9.881,4.71l1.452,10.849c0.362,2.701,9.34,66.425,51.792,89.402
	c12.277,6.645,25.905,9.027,39.15,9.027c32.613,0,62.86-14.456,64.625-15.315l9.679-4.708L178.732,213.575z"/>
<path style="fill:#FF9900;" d="M469.657,157.141c-17.689-12.866-38.601-19.665-60.474-19.665h-200.23
	c-22.858,0-44.855,8.363-61.94,23.549c-4.73,4.204-9.001,8.866-12.773,13.936c-25.102-6.622-47.823-6.009-66.249,1.877
	c-48.373,20.704-64.865,90.398-65.543,93.355L0,280.862l9.403,5.602c1.989,1.185,39.022,22.905,78.121,22.905
	c11.291,0,22.753-1.811,33.593-6.451c12.802-5.48,24.391-14.773,34.532-27.676h356.349v-34.951
	C512,207.509,496.171,176.424,469.657,157.141z"/>
<path style="fill:#FF5D00;" d="M469.657,157.141c-17.689-12.866-38.601-19.665-60.474-19.665h-95.212v137.768H512v-34.951
	C512,207.509,496.171,176.424,469.657,157.141z"/>
<path style="fill:#FFC42D;" d="M208.953,137.475c-0.17,0-0.339,0.011-0.509,0.012v137.756h30.055V137.475H208.953z"/>
<path style="fill:#FFAE33;" d="M409.183,137.475H390.11v137.768h30.055V138.07C416.538,137.685,412.876,137.475,409.183,137.475z"/>
<rect x="299.277" y="137.472" style="fill:#FFC42D;" width="30.055" height="137.772"/>
<rect x="314.305" y="137.472" style="fill:#FFAE33;" width="15.027" height="137.772"/>
<g>
</g>
<g>
</g>
<g>
</g>
<g>
</g>
<g>
</g>
<g>
</g>
<g>
</g>
<g>
</g>
<g>
</g>
<g>
</g>
<g>
</g>
<g>
</g>
<g>
</g>
<g>
</g>
<g>
</g>
</svg>
