<?xml version="1.0" encoding="iso-8859-1"?>
<!-- Generator: Adobe Illustrator 19.0.0, SVG Export Plug-In . SVG Version: 6.00 Build 0)  -->
<svg version="1.1" id="Capa_1" xmlns="http://www.w3.org/2000/svg" xmlns:xlink="http://www.w3.org/1999/xlink" x="0px" y="0px"
	 viewBox="0 0 512 512" style="enable-background:new 0 0 512 512;" xml:space="preserve">
<path style="fill:#FFE1B4;" d="M463.776,207.4c0-19.258-8.681-36.517-22.325-48.101c13.643-11.584,22.325-28.843,22.325-48.1
	c0-30.279-21.435-55.645-49.954-61.718C407.579,21.212,382.321,0,352.201,0c-19.258,0-36.517,8.681-48.101,22.324
	C292.517,8.681,275.258,0,256,0s-36.517,8.681-48.101,22.324C196.316,8.681,179.057,0,159.799,0
	c-30.117,0-55.375,21.209-61.62,49.476C69.673,55.541,48.224,80.912,48.224,111.2c0,19.257,8.681,36.517,22.325,48.1
	c-13.643,11.583-22.325,28.843-22.325,48.101s8.681,36.517,22.325,48.101c-13.643,11.583-22.325,28.843-22.325,48.1
	c0,19.361,8.772,36.704,22.541,48.288c-13.77,11.584-22.541,28.928-22.541,48.288c0,30.238,21.378,55.577,49.816,61.693
	C104.036,490.463,129.45,512,159.799,512c19.258,0,36.517-8.681,48.101-22.325C219.483,503.319,236.742,512,256,512
	s36.517-8.681,48.101-22.325c11.583,13.644,28.842,22.325,48.1,22.325c30.349,0,55.763-21.537,61.76-50.129
	c28.438-6.116,49.815-31.455,49.815-61.693c0-19.361-8.772-36.704-22.541-48.288c13.77-11.584,22.541-28.928,22.541-48.288
	c0-19.257-8.681-36.517-22.325-48.1C455.095,243.917,463.776,226.658,463.776,207.4z"/>
<path style="fill:#FFCB7D;" d="M256,512c19.258,0,36.517-8.681,48.101-22.325c11.583,13.644,28.842,22.325,48.1,22.325
	c30.349,0,55.763-21.537,61.76-50.129c28.438-6.116,49.815-31.455,49.815-61.693c0-19.361-8.772-36.704-22.541-48.288
	c13.77-11.584,22.541-28.928,22.541-48.288c0-19.257-8.681-36.517-22.325-48.1c13.643-11.584,22.325-28.843,22.325-48.101
	s-8.681-36.517-22.325-48.101c13.643-11.584,22.325-28.843,22.325-48.1c0-30.279-21.435-55.645-49.954-61.718
	C407.579,21.212,382.321,0,352.201,0c-19.258,0-36.517,8.681-48.101,22.324C292.517,8.681,275.258,0,256,0V512z"/>
<rect x="128.18" y="79.48" style="fill:#FFCE85;" width="255.78" height="352.39"/>
<rect x="256" y="79.48" style="fill:#FFB23E;" width="127.96" height="352.39"/>
<rect x="160" y="241" style="fill:#AC825A;" width="30" height="30"/>
<rect x="322" y="241" style="fill:#56412D;" width="30" height="30"/>
<g>
	<rect x="241" y="128" style="fill:#AC825A;" width="30" height="30"/>
	<rect x="241" y="354" style="fill:#AC825A;" width="30" height="30"/>
	<rect x="241" y="241" style="fill:#AC825A;" width="30" height="30"/>
</g>
<g>
	<rect x="256" y="241" style="fill:#56412D;" width="15" height="30"/>
	<rect x="256" y="354" style="fill:#56412D;" width="15" height="30"/>
	<rect x="256" y="128" style="fill:#56412D;" width="15" height="30"/>
</g>
<g>
</g>
<g>
</g>
<g>
</g>
<g>
</g>
<g>
</g>
<g>
</g>
<g>
</g>
<g>
</g>
<g>
</g>
<g>
</g>
<g>
</g>
<g>
</g>
<g>
</g>
<g>
</g>
<g>
</g>
</svg>
