<?xml version="1.0" encoding="iso-8859-1"?>
<!-- Generator: Adobe Illustrator 19.0.0, SVG Export Plug-In . SVG Version: 6.00 Build 0)  -->
<svg version="1.1" id="Capa_1" xmlns="http://www.w3.org/2000/svg" xmlns:xlink="http://www.w3.org/1999/xlink" x="0px" y="0px"
	 viewBox="0 0 512 512" style="enable-background:new 0 0 512 512;" xml:space="preserve">
<rect x="208.999" y="379.67" style="fill:#FFE1B4;" width="94" height="132.33"/>
<rect x="255.999" y="379.67" style="fill:#FFCB7D;" width="47" height="132.33"/>
<path style="fill:#FFC42D;" d="M255.999,0c-70.584,0-128.008,57.424-128.008,128.008V399h256.017V128.008
	C384.008,57.424,326.583,0,255.999,0z"/>
<path style="fill:#FF9900;" d="M255.999,0v399h128.008V128.008C384.008,57.424,326.583,0,255.999,0z"/>
<path style="fill:#816244;" d="M255.999,0c-70.584,0-128.008,57.424-128.008,128.008v27.9H255.87V160c0,25.916,21.084,47,47,47
	c25.916,0,47-21.084,47-47v-4.091h34.137v-27.9C384.008,57.424,326.583,0,255.999,0z"/>
<path style="fill:#56412D;" d="M255.87,155.909V160c0,25.916,21.084,47,47,47c25.916,0,47-21.084,47-47v-4.091h34.137v-27.9
	C384.008,57.424,326.583,0,255.999,0"/>
<rect x="177.999" y="234.67" style="fill:#FF318F;" width="30" height="30"/>
<rect x="304" y="296.67" style="fill:#BF256B;" width="30" height="30"/>
<g>
</g>
<g>
</g>
<g>
</g>
<g>
</g>
<g>
</g>
<g>
</g>
<g>
</g>
<g>
</g>
<g>
</g>
<g>
</g>
<g>
</g>
<g>
</g>
<g>
</g>
<g>
</g>
<g>
</g>
</svg>
