<?xml version="1.0" encoding="iso-8859-1"?>
<!-- Generator: Adobe Illustrator 19.0.0, SVG Export Plug-In . SVG Version: 6.00 Build 0)  -->
<svg version="1.1" id="Capa_1" xmlns="http://www.w3.org/2000/svg" xmlns:xlink="http://www.w3.org/1999/xlink" x="0px" y="0px"
	 viewBox="0 0 512 512" style="enable-background:new 0 0 512 512;" xml:space="preserve">
<path style="fill:#60DD4D;" d="M273.723,123.494c0.035-2.556,0.094-19.366-4.07-39.302c-6.304-30.186-18.77-52.463-37.052-66.214
	C214.363,4.26,189.661-1.655,159.178,0.397c-21.45,1.443-38.181,6.502-38.882,6.717l-12.232,3.741l-0.531,12.781
	c-0.092,2.201-1.781,54.476,38.505,103.569l0,0c40.677,49.571,104.171,60.772,106.855,61.224L274.066,192L273.723,123.494z"/>
<path style="fill:#00C47A;" d="M273.723,123.494c0.035-2.556,0.094-19.366-4.07-39.302c-6.304-30.186-18.77-52.463-37.052-66.214
	C214.363,4.26,189.661-1.655,159.178,0.397c-21.45,1.443-38.181,6.502-38.882,6.717l-12.232,3.741L274.066,192L273.723,123.494z"/>
<path style="fill:#60DD4D;" d="M238.277,123.494c-0.035-2.556-0.094-19.366,4.07-39.302c6.304-30.186,18.77-52.463,37.052-66.214
	c18.239-13.718,42.94-19.633,73.423-17.581c21.45,1.443,38.181,6.502,38.882,6.717l12.232,3.741l0.531,12.781
	c0.092,2.201,1.781,54.476-38.505,103.569l0,0c-40.677,49.571-104.171,60.772-106.855,61.224L237.934,192L238.277,123.494z"/>
<path style="fill:#00935C;" d="M238.277,123.494c-0.035-2.556-0.094-19.366,4.07-39.302c6.304-30.186,18.77-52.463,37.052-66.214
	c18.239-13.718,42.94-19.633,73.423-17.581c21.45,1.443,38.181,6.502,38.882,6.717l12.232,3.741L237.934,192L238.277,123.494z"/>
<rect x="237.99" y="152.67" style="fill:#AC825A;" width="36.03" height="61.67"/>
<rect x="256" y="152.67" style="fill:#816244;" width="18.02" height="61.67"/>
<path style="fill:#BF256B;" d="M256,200.665c-63.595,0-115.333,51.738-115.333,115.333c0,21.877,6.157,43.173,17.806,61.583
	c11.287,17.838,27.215,32.237,46.071,41.651L241,438.588v23.987l-17.784,36.195L250.141,512L271,469.548v-30.96l36.455-19.356
	c18.856-9.414,34.784-23.813,46.071-41.651c11.649-18.411,17.806-39.706,17.806-61.583C371.332,252.403,319.595,200.665,256,200.665
	z"/>
<path style="fill:#801948;" d="M256,200.665v299.41l15-30.527v-30.96l36.455-19.356c18.856-9.414,34.784-23.813,46.071-41.651
	c11.649-18.411,17.806-39.706,17.806-61.583C371.332,252.403,319.595,200.665,256,200.665z"/>
<path style="fill:#BA63D4;" d="M202.667,273h-53.68c-3.81,9.449-6.401,19.514-7.583,30h61.262v-30H202.667z"/>
<path style="fill:#A93CCA;" d="M309.333,326.333v30h54.729c3.59-9.62,5.872-19.703,6.792-30H309.333z"/>
<g>
</g>
<g>
</g>
<g>
</g>
<g>
</g>
<g>
</g>
<g>
</g>
<g>
</g>
<g>
</g>
<g>
</g>
<g>
</g>
<g>
</g>
<g>
</g>
<g>
</g>
<g>
</g>
<g>
</g>
</svg>
