<?xml version="1.0" encoding="iso-8859-1"?>
<!-- Generator: Adobe Illustrator 19.0.0, SVG Export Plug-In . SVG Version: 6.00 Build 0)  -->
<svg version="1.1" id="Capa_1" xmlns="http://www.w3.org/2000/svg" xmlns:xlink="http://www.w3.org/1999/xlink" x="0px" y="0px"
	 viewBox="0 0 511.999 511.999" style="enable-background:new 0 0 511.999 511.999;" xml:space="preserve">
<path style="fill:#7985EC;" d="M349.48,283.647c-16.934-27.541-22.663-51.822-27.718-73.245c-2.699-11.443-5.25-22.252-9.249-31.785
	c-7.239-17.257-17.483-31.034-30.445-40.949c-14.681-11.229-32.083-16.922-51.723-16.922c-43.26,0-76.517,32.231-88.962,86.219
	c-6.705,29.085-21.204,104.809-11.046,179.629c4.751,34.999,18.456,65.355,39.634,87.788c22.767,24.116,52.443,37.119,85.823,37.603
	c0.639,0.009,1.272,0.014,1.909,0.014c33.71-0.001,65.418-12.985,89.463-36.683c24.504-24.151,37.999-56.397,37.999-90.799
	C385.166,346.555,366.095,310.67,349.48,283.647z"/>
<path style="fill:#5B64B1;" d="M349.48,283.647c-16.934-27.541-22.663-51.822-27.718-73.245c-2.699-11.443-5.25-22.252-9.249-31.785
	c-7.239-17.257-17.483-31.034-30.445-40.949c-13.434-10.275-29.152-15.899-46.772-16.783v389.146
	c6.651,1.192,13.492,1.853,20.499,1.954c0.639,0.009,1.272,0.014,1.909,0.014c33.71-0.001,65.418-12.985,89.463-36.683
	c24.504-24.151,37.999-56.397,37.999-90.799C385.166,346.555,366.095,310.67,349.48,283.647z"/>
<path style="fill:#60DD4D;" d="M314.939,121.348c-0.394-0.658-0.793-1.306-1.198-1.945c-11.184-17.682-29.05-29.698-49.105-34.07
	V47.445L231.478,0h-46.175v30.989l19.833,24.482v30.05c-19.722,4.518-37.255,16.441-48.287,33.882
	c-0.404,0.639-0.803,1.287-1.197,1.945c-15.757,26.3-8.209,52.095-8.209,52.095s34.656,10.6,54.834-4.577
	c9.919,23.021,33.019,40.941,33.019,40.941s23.099-17.919,33.018-40.941c20.178,15.177,54.834,4.577,54.834,4.577
	S330.696,147.648,314.939,121.348z"/>
<path style="fill:#00C47A;" d="M314.939,121.348c-0.394-0.658-0.793-1.306-1.198-1.945c-11.184-17.682-29.05-29.698-49.105-34.07
	V47.445l-29.34-41.982v204.344l0,0c0,0,23.099-17.919,33.018-40.941c20.178,15.177,54.834,4.577,54.834,4.577
	S330.696,147.648,314.939,121.348z"/>
<g>
</g>
<g>
</g>
<g>
</g>
<g>
</g>
<g>
</g>
<g>
</g>
<g>
</g>
<g>
</g>
<g>
</g>
<g>
</g>
<g>
</g>
<g>
</g>
<g>
</g>
<g>
</g>
<g>
</g>
</svg>
