<?xml version="1.0" encoding="iso-8859-1"?>
<!-- Generator: Adobe Illustrator 19.0.0, SVG Export Plug-In . SVG Version: 6.00 Build 0)  -->
<svg version="1.1" id="Capa_1" xmlns="http://www.w3.org/2000/svg" xmlns:xlink="http://www.w3.org/1999/xlink" x="0px" y="0px"
	 viewBox="0 0 512 512" style="enable-background:new 0 0 512 512;" xml:space="preserve">
<path style="fill:#FFE981;" d="M512,128.827l-351.227-96.89l-11.885,2.971C90.936,49.396,39.142,83.588,3.048,131.186L0,135.205
	l256,65.048L512,128.827z"/>
<polygon style="fill:#FFDB2D;" points="234.667,52.321 234.667,194.833 256,200.253 512,128.827 "/>
<path style="fill:#816244;" d="M234.667,132.282L256,147.021l187.416,0.942L512,128.827l-213.333-58.85
	C298.667,69.977,256,85.588,234.667,132.282z"/>
<path style="fill:#FFF8D5;" d="M495.96,236.254L512,236.68V128.827L0,135.205v344.858h196.683l-0.333-15.326l-0.017-0.567
	c0.045-12.277,10.046-22.249,22.334-22.249c12.285,0,22.285,9.971,22.333,22.244l-0.322,15.898H512V280.495l-15.395,0.406
	l-0.605,0.02c-12.315,0-22.333-10.019-22.333-22.333C473.667,246.286,483.663,236.276,495.96,236.254z"/>
<polygon style="fill:#FFDB2D;" points="42.667,134.408 0,135.205 0,480.063 42.667,480.063 "/>
<path style="fill:#FFF1AB;" d="M495.96,236.254L512,236.68V128.827l-277.333,3.455v316.414c3.896,4.005,6.31,9.459,6.333,15.469
	l-0.322,15.898H512V280.495l-15.395,0.406l-0.605,0.02c-12.315,0-22.333-10.019-22.333-22.333
	C473.667,246.286,483.663,236.276,495.96,236.254z"/>
<circle style="fill:#FFE257;" cx="192" cy="266.92" r="42.667"/>
<circle style="fill:#FFDB2D;" cx="352" cy="352.25" r="32"/>
<g>
</g>
<g>
</g>
<g>
</g>
<g>
</g>
<g>
</g>
<g>
</g>
<g>
</g>
<g>
</g>
<g>
</g>
<g>
</g>
<g>
</g>
<g>
</g>
<g>
</g>
<g>
</g>
<g>
</g>
</svg>
