<?xml version="1.0" encoding="iso-8859-1"?>
<!-- Generator: Adobe Illustrator 19.0.0, SVG Export Plug-In . SVG Version: 6.00 Build 0)  -->
<svg version="1.1" id="Capa_1" xmlns="http://www.w3.org/2000/svg" xmlns:xlink="http://www.w3.org/1999/xlink" x="0px" y="0px"
	 viewBox="0 0 512 512" style="enable-background:new 0 0 512 512;" xml:space="preserve">
<polygon style="fill:#FF9900;" points="293.696,465.709 293.696,377.167 263.665,377.167 263.665,472.687 282.98,512 
	309.933,498.756 "/>
<polygon style="fill:#FFB92D;" points="218.303,465.709 202.066,498.756 229.019,512 248.334,472.687 248.334,377.167 
	218.303,377.167 "/>
<path style="fill:#727DDE;" d="M287.515,93.109c-7.797-8.5-18.401-12.81-31.515-12.81c-33.326,0-88.872,27.948-132.079,66.454
	c-25.859,23.046-46.529,48.591-61.438,75.923c-17.603,32.275-26.53,66.071-26.53,100.451c0,50.713,18.341,87.154,54.514,108.313
	c23.71,13.868,54.394,20.61,93.808,20.61c32.36,0,59.701-14.415,79.069-41.687c20.208-28.455,30.454-69.116,30.454-120.856
	c0-29.212,2.494-58.088,4.694-83.566C303.113,152.422,306.454,113.754,287.515,93.109z"/>
<path style="fill:#5B64B1;" d="M449.517,222.677c-14.909-27.333-35.579-52.877-61.438-75.923
	C344.872,108.247,289.326,80.299,256,80.299c-13.115,0-23.718,4.311-31.515,12.81c-18.939,20.645-15.598,59.313-10.976,112.832
	c2.2,25.478,4.694,54.355,4.694,83.566c0,51.739,10.246,92.402,30.454,120.856c19.368,27.272,46.709,41.687,79.069,41.687
	c39.414,0,70.098-6.741,93.808-20.61c36.173-21.158,54.514-57.6,54.514-108.313C476.047,288.748,467.121,254.951,449.517,222.677z"
	/>
<path style="fill:#949DF0;" d="M361.18,196.177c-5.823-15.482-76.979-180.118-80.007-187.12L277.258,0h-92.587l19.342,70.172
	c-0.917,26.782-20.528,68.505-33.61,96.334c-3.605,7.669-7.009,14.912-9.686,21.06c-10.115,23.237-33.64,82.963-33.64,135.562
	c0,54.21,14.194,94.857,42.187,120.811c21.798,20.209,51.79,30.892,86.736,30.892s64.937-10.682,86.735-30.892
	c27.993-25.954,42.187-66.601,42.187-120.811C384.922,281.967,376.49,236.882,361.18,196.177z"/>
<path style="fill:#7985EC;" d="M361.18,196.177c-5.823-15.482-76.979-180.118-80.007-187.12L277.258,0H256v474.831
	c34.945,0,64.937-10.682,86.735-30.892c27.993-25.954,42.187-66.601,42.187-120.811C384.922,281.967,376.49,236.882,361.18,196.177z
	"/>
<g>
</g>
<g>
</g>
<g>
</g>
<g>
</g>
<g>
</g>
<g>
</g>
<g>
</g>
<g>
</g>
<g>
</g>
<g>
</g>
<g>
</g>
<g>
</g>
<g>
</g>
<g>
</g>
<g>
</g>
</svg>
