<?xml version="1.0" encoding="iso-8859-1"?>
<!-- Generator: Adobe Illustrator 19.0.0, SVG Export Plug-In . SVG Version: 6.00 Build 0)  -->
<svg version="1.1" id="Capa_1" xmlns="http://www.w3.org/2000/svg" xmlns:xlink="http://www.w3.org/1999/xlink" x="0px" y="0px"
	 viewBox="0 0 512 512" style="enable-background:new 0 0 512 512;" xml:space="preserve">
<path style="fill:#BFF1B8;" d="M469.034,216.394C469.034,98.927,373.467,3.36,256,3.36S42.966,98.927,42.966,216.394
	c0,100.438,69.872,184.853,163.558,207.22l-40.751,57.337l12.71,27.69h155.034l12.71-27.69l-40.75-57.336
	C399.162,401.247,469.034,316.833,469.034,216.394z"/>
<path style="fill:#80E471;" d="M469.034,216.394C469.034,98.927,373.467,3.36,256,3.36l0,0v505.281h77.517l12.71-27.69
	l-40.75-57.336C399.162,401.247,469.034,316.833,469.034,216.394z"/>
<path style="fill:#60DD4D;" d="M300.876,289.285c-1.811-8.544-3.521-16.614-3.521-23.933c0-8.477,1.211-17.357,2.494-26.758
	c2.525-18.506,5.136-37.642-1.372-56.195c-6.77-19.299-21.656-33.324-34.79-45.697c-6.659-6.273-12.948-12.199-17.904-18.385
	c-5.032-6.281-9.489-13.781-14.209-21.72c-9.635-16.21-19.597-32.972-36.747-43.714c-20.205-12.655-39.548-16.727-60.027-21.038
	c-3.871-0.814-7.873-1.657-11.955-2.571l-5.912-1.324l-16.555,10.091l-0.653,0.504c-30.336,23.41-55.439,53.832-72.598,87.976
	C9.127,162.34,0,200.965,0,241.325c0,52.29,15.666,102.582,45.305,145.436c28.943,41.848,69.149,73.857,116.273,92.567l10.196,3.932
	l5.744-2.628c3.729-1.706,7.402-3.273,10.955-4.788c13.705-5.845,26.65-11.365,40.074-23.317
	c12.367-11.011,18.065-26.485,23.093-40.138c2.954-8.021,5.744-15.596,9.482-21.514c3.636-5.757,9.199-11.438,15.087-17.452
	c10.257-10.474,21.882-22.346,26.549-38.53C307.246,319.336,303.862,303.371,300.876,289.285z"/>
<path style="fill:#00C47A;" d="M121.666,398.99c2.524-6.854,4.908-13.327,8.037-18.281c3.04-4.813,7.792-9.665,12.823-14.803
	c9.059-9.252,19.327-19.737,23.513-34.255c4.028-13.968,1.039-28.071-1.599-40.514c-1.548-7.304-3.01-14.203-3.01-20.34
	c0-7.216,1.042-14.852,2.145-22.935c2.222-16.281,4.519-33.117-1.284-49.66c-6.031-17.192-19.127-29.531-30.682-40.417
	c-5.722-5.391-11.127-10.483-15.337-15.739c-4.166-5.2-7.871-11.664-11.794-18.507c-8.092-14.116-17.264-30.116-33.627-39.11
	c-4.459-2.451-8.44-4.821-11.628-6.791c-12.522,15.039-23.347,31.473-32.096,48.883C9.127,162.34,0,200.965,0,241.325
	c0,52.29,15.666,102.582,45.305,145.436c14,20.243,30.643,38.175,49.422,53.421c1.848-1.592,3.957-3.439,6.369-5.586
	C112.192,424.716,117.226,411.049,121.666,398.99z"/>
<path style="fill:#3AC924;" d="M211.124,289.285c1.811-8.544,3.521-16.614,3.521-23.933c0-8.477-1.211-17.357-2.494-26.758
	c-2.525-18.506-5.136-37.642,1.372-56.195c6.77-19.299,21.656-33.324,34.79-45.697c6.659-6.273,12.948-12.199,17.904-18.385
	c5.032-6.281,9.489-13.781,14.208-21.72c9.635-16.21,19.597-32.972,36.747-43.714c20.205-12.655,39.548-16.727,60.027-21.038
	c3.871-0.814,7.872-1.657,11.955-2.571l5.912-1.324l16.555,10.091l0.653,0.504c30.336,23.411,55.439,53.833,72.598,87.977
	c18,35.819,27.127,74.444,27.127,114.804c0,52.29-15.666,102.582-45.305,145.436c-28.943,41.848-69.149,73.857-116.273,92.567
	l-10.196,3.932l-5.744-2.628c-3.728-1.706-7.402-3.273-10.955-4.788c-13.705-5.845-26.65-11.365-40.074-23.317
	c-12.367-11.011-18.065-26.485-23.093-40.138c-2.954-8.021-5.744-15.596-9.482-21.514c-3.636-5.757-9.199-11.438-15.087-17.452
	c-10.257-10.474-21.882-22.346-26.549-38.53C204.754,319.336,208.138,303.371,211.124,289.285z"/>
<path style="fill:#00935C;" d="M390.334,398.99c-2.524-6.854-4.908-13.327-8.037-18.281c-3.041-4.813-7.792-9.665-12.823-14.803
	c-9.059-9.252-19.327-19.737-23.513-34.255c-4.028-13.968-1.039-28.071,1.599-40.514c1.548-7.304,3.01-14.203,3.01-20.34
	c0-7.216-1.042-14.852-2.145-22.935c-2.222-16.281-4.519-33.117,1.284-49.66c6.031-17.192,19.127-29.531,30.682-40.417
	c5.722-5.391,11.127-10.483,15.337-15.739c4.165-5.2,7.871-11.664,11.794-18.507c8.092-14.116,17.264-30.116,33.627-39.11
	c4.459-2.451,8.44-4.821,11.628-6.791c12.521,15.039,23.346,31.473,32.096,48.883c18,35.819,27.127,74.444,27.127,114.804
	c0,52.29-15.666,102.582-45.305,145.436c-14,20.243-30.643,38.175-49.422,53.421c-1.848-1.592-3.957-3.439-6.369-5.586
	C399.807,424.716,394.774,411.049,390.334,398.99z"/>
<g>
</g>
<g>
</g>
<g>
</g>
<g>
</g>
<g>
</g>
<g>
</g>
<g>
</g>
<g>
</g>
<g>
</g>
<g>
</g>
<g>
</g>
<g>
</g>
<g>
</g>
<g>
</g>
<g>
</g>
</svg>
