<?xml version="1.0" encoding="iso-8859-1"?>
<!-- Generator: Adobe Illustrator 19.0.0, SVG Export Plug-In . SVG Version: 6.00 Build 0)  -->
<svg version="1.1" id="Capa_1" xmlns="http://www.w3.org/2000/svg" xmlns:xlink="http://www.w3.org/1999/xlink" x="0px" y="0px"
	 viewBox="0 0 512 512" style="enable-background:new 0 0 512 512;" xml:space="preserve">
<rect x="241" style="fill:#AC825A;" width="30" height="55.853"/>
<path style="fill:#BFF1B8;" d="M369.85,166.462c0.007-0.416,0.011-0.833,0.014-1.25c0.357-62.7-50.06-114.537-112.286-115.385
	c-63.609-0.867-115.442,50.824-115.442,114.713c0,0.951,0.011,1.899,0.034,2.844c0.626,25.93-7.303,51.298-21.719,72.787
	c-17.194,25.63-27.416,56.396-27.919,89.54c-1.383,91.12,71.849,166.646,162.296,167.286
	c90.831,0.642,164.662-73.35,164.662-164.717c0-34.198-10.347-65.959-28.056-92.284C376.853,218.323,369.422,192.639,369.85,166.462
	z"/>
<path style="fill:#80E471;" d="M254.827,496.996c90.831,0.642,164.662-73.35,164.662-164.717c0-34.198-10.347-65.959-28.056-92.284
	c-14.579-21.672-22.01-47.355-21.583-73.533c0.007-0.416,0.011-0.833,0.014-1.25c0.357-62.7-50.06-114.537-112.286-115.385
	L254.827,496.996z"/>
<path style="fill:#816244;" d="M256.01,512c-0.431,0-0.858-0.002-1.289-0.005c-47.515-0.336-92.166-19.419-125.726-53.735
	c-33.92-34.684-52.196-80.417-51.462-128.778c0.531-34.982,11.064-68.756,30.461-97.669c13.089-19.51,19.721-41.664,19.18-64.068
	c-0.026-1.064-0.039-2.134-0.039-3.206c0-35.148,13.736-68.055,38.677-92.659c24.7-24.365,57.38-37.534,91.969-37.052
	c70.478,0.961,127.486,59.489,127.082,130.469c-0.003,0.466-0.008,0.931-0.016,1.394v0.016c-0.382,23.393,6.198,45.841,19.03,64.915
	c20.025,29.768,30.61,64.574,30.61,100.657c0,48.479-18.881,93.927-53.167,127.97C347.684,493.651,303.224,512,256.01,512z
	 M255.996,64.815c-26.008,0-50.503,10.061-69.116,28.422c-19.181,18.922-29.745,44.244-29.745,71.302c0,0.829,0.01,1.655,0.03,2.479
	c0.692,28.637-7.696,56.821-24.258,81.508c-16.16,24.088-24.935,52.239-25.378,81.411c-0.612,40.302,14.629,78.425,42.913,107.347
	c27.926,28.554,65.035,44.433,104.49,44.712c39.652,0.241,77.02-15.003,105.251-43.035c28.57-28.369,44.305-66.256,44.305-106.683
	c0-30.095-8.818-59.111-25.502-83.912c-16.269-24.184-24.615-52.585-24.135-82.135l0,0c0.005-0.369,0.01-0.739,0.012-1.109
	c0.312-54.566-43.423-99.562-97.491-100.299C256.914,64.818,256.453,64.815,255.996,64.815z"/>
<path style="fill:#AC825A;" d="M256,219.667c-61.206,0-111,49.794-111,111s49.794,111,111,111s111-49.794,111-111
	S317.206,219.667,256,219.667z"/>
<path style="fill:#816244;" d="M256,441.667c61.206,0,111-49.794,111-111s-49.794-111-111-111V441.667z"/>
<path style="fill:#56412D;" d="M403.878,231.622c-12.832-19.075-19.413-41.522-19.03-64.915v-0.016
	c0.007-0.463,0.013-0.927,0.016-1.394c0.404-70.98-56.604-129.508-127.082-130.469c-0.595-0.008-1.188-0.003-1.781-0.003v29.991
	c0.456,0,0.915,0.003,1.372,0.009c54.068,0.737,97.803,45.732,97.491,100.299c-0.002,0.37-0.006,0.74-0.012,1.109
	c-0.48,29.55,7.866,57.951,24.135,82.135c16.684,24.8,25.502,53.816,25.502,83.912c0,40.426-15.734,78.313-44.305,106.683
	c-27.977,27.78-64.929,42.992-104.184,43.029V512c0.003,0,0.006,0,0.009,0c47.214,0,91.674-18.35,125.312-51.751
	c34.285-34.043,53.167-79.491,53.167-127.97C434.489,296.196,423.904,261.39,403.878,231.622z"/>
<g>
</g>
<g>
</g>
<g>
</g>
<g>
</g>
<g>
</g>
<g>
</g>
<g>
</g>
<g>
</g>
<g>
</g>
<g>
</g>
<g>
</g>
<g>
</g>
<g>
</g>
<g>
</g>
<g>
</g>
</svg>
