<?xml version="1.0" encoding="iso-8859-1"?>
<!-- Generator: Adobe Illustrator 19.0.0, SVG Export Plug-In . SVG Version: 6.00 Build 0)  -->
<svg version="1.1" id="Capa_1" xmlns="http://www.w3.org/2000/svg" xmlns:xlink="http://www.w3.org/1999/xlink" x="0px" y="0px"
	 viewBox="0 0 512 512" style="enable-background:new 0 0 512 512;" xml:space="preserve">
<polygon style="fill:#FF9900;" points="280.421,512 262.237,474.991 262.237,385.324 292.237,385.324 292.237,468.019 
	307.347,498.771 "/>
<polygon style="fill:#FFB92D;" points="231.575,512 204.649,498.771 219.759,468.019 219.759,385.324 249.759,385.324 
	249.759,474.991 "/>
<path style="fill:#BF256B;" d="M425.009,165.483c-14.873-25.557-35.7-48.239-52.183-65.144
	C315.827,41.88,292.277,7.013,292.054,6.68L287.601,0l-63.194,0.012l-4.456,6.655c-0.231,0.345-23.781,35.212-80.78,93.672
	c-38.945,39.944-74.985,85.232-74.985,145.624c0,79.188,48.924,150.314,122.356,178.834l13.353,24.768h112.209l13.354-24.768
	c73.432-28.52,122.355-99.646,122.355-178.834C447.812,218.173,440.352,191.848,425.009,165.483z"/>
<path style="fill:#801948;" d="M425.009,165.483c-14.873-25.557-35.7-48.239-52.183-65.144
	C315.827,41.88,292.277,7.013,292.054,6.68L287.601,0l-30.27,0.006v449.558h54.771l13.354-24.768
	c73.432-28.52,122.355-99.646,122.355-178.834C447.812,218.173,440.352,191.848,425.009,165.483z"/>
<path style="fill:#A93CCA;" d="M325.835,366.914l-23.867-18.176c8.573-11.257,15.363-25.665,20.761-44.046
	c8.51-28.976,10.634-62.171,6.143-96c-4.539-34.174-14.419-59.609-30.206-77.76l22.637-19.688
	c19.767,22.728,31.971,53.312,37.308,93.499c5.039,37.951,2.585,75.435-7.096,108.4
	C345.066,335.103,336.666,352.691,325.835,366.914z"/>
<path style="fill:#BA63D4;" d="M186.161,366.914c-10.831-14.223-19.231-31.812-25.679-53.771
	c-9.681-32.964-12.135-70.448-7.096-108.399c5.337-40.188,17.541-70.772,37.308-93.499l22.637,19.688
	c-15.787,18.151-25.667,43.587-30.206,77.761c-4.491,33.827-2.367,67.022,6.143,95.997c5.397,18.383,12.188,32.79,20.761,44.047
	L186.161,366.914z"/>
<g>
</g>
<g>
</g>
<g>
</g>
<g>
</g>
<g>
</g>
<g>
</g>
<g>
</g>
<g>
</g>
<g>
</g>
<g>
</g>
<g>
</g>
<g>
</g>
<g>
</g>
<g>
</g>
<g>
</g>
</svg>
