<?xml version="1.0" encoding="iso-8859-1"?>
<!-- Generator: Adobe Illustrator 19.0.0, SVG Export Plug-In . SVG Version: 6.00 Build 0)  -->
<svg version="1.1" id="Capa_1" xmlns="http://www.w3.org/2000/svg" xmlns:xlink="http://www.w3.org/1999/xlink" x="0px" y="0px"
	 viewBox="0 0 512 512" style="enable-background:new 0 0 512 512;" xml:space="preserve">
<polygon style="fill:#816244;" points="201.331,0 201.331,33.333 222.665,59.667 222.665,147.033 286.665,147.033 286.665,51.033 
	250.998,0 "/>
<path style="fill:#FC0023;" d="M253.408,152.298c-18.597-29.283-45.318-45.409-75.241-45.409c-29.924,0-56.645,16.126-75.241,45.409
	c-18.487,29.11-28.259,70.055-28.259,118.407c0,49.161,9.884,100.605,27.117,141.14c19.873,46.745,46.999,72.488,76.383,72.488
	s56.51-25.743,76.383-72.488c17.233-40.535,27.117-91.979,27.117-141.14C281.665,222.353,271.893,181.408,253.408,152.298z"/>
<path style="fill:#CC001C;" d="M409.074,152.298c-18.597-29.283-45.318-45.409-75.241-45.409c-29.924,0-56.645,16.126-75.241,45.409
	c-18.487,29.11-28.259,70.055-28.259,118.407c0,49.161,9.884,100.605,27.117,141.14c19.873,46.745,47,72.488,76.383,72.488
	c29.384,0,56.51-25.743,76.383-72.488c17.233-40.535,27.117-91.979,27.117-141.14C437.332,222.353,427.56,181.408,409.074,152.298z"
	/>
<path style="fill:#FF5D00;" d="M331.319,155.796c-18.552-31.538-45.368-48.907-75.508-48.907c-30.141,0-56.956,17.369-75.508,48.907
	c-18.313,31.131-27.992,74.964-27.992,126.759c0,52.788,9.828,108.022,26.964,151.539C199.057,484.332,226.24,512,255.811,512
	s56.753-27.667,76.536-77.905c17.136-43.517,26.964-98.751,26.964-151.539C359.311,230.76,349.631,186.928,331.319,155.796z"/>
<path style="fill:#FC0023;" d="M255.811,512c29.572,0,56.753-27.667,76.536-77.905c17.136-43.517,26.964-98.751,26.964-151.539
	c0-51.795-9.68-95.628-27.992-126.759c-18.552-31.538-45.368-48.907-75.508-48.907"/>
<g>
</g>
<g>
</g>
<g>
</g>
<g>
</g>
<g>
</g>
<g>
</g>
<g>
</g>
<g>
</g>
<g>
</g>
<g>
</g>
<g>
</g>
<g>
</g>
<g>
</g>
<g>
</g>
<g>
</g>
</svg>
