<?xml version="1.0" encoding="iso-8859-1"?>
<!-- Generator: Adobe Illustrator 19.0.0, SVG Export Plug-In . SVG Version: 6.00 Build 0)  -->
<svg version="1.1" id="Capa_1" xmlns="http://www.w3.org/2000/svg" xmlns:xlink="http://www.w3.org/1999/xlink" x="0px" y="0px"
	 viewBox="0 0 512.001 512.001" style="enable-background:new 0 0 512.001 512.001;" xml:space="preserve">
<path style="fill:#60DD4D;" d="M417.599,23.134l-0.163-10.926l-10.448-3.196c-0.623-0.19-15.466-4.678-34.522-5.96
	c-26.98-1.817-48.821,3.398-64.907,15.497c-16.123,12.127-27.127,31.823-32.708,58.544c-3.935,18.84-3.626,34.516-3.611,35.174
	l0.246,10.741l10.248,3.225c0.618,0.195,15.367,4.784,34.332,6.161c3.691,0.268,7.288,0.402,10.786,0.402
	c21.957,0,40.077-5.272,53.974-15.724c16.099-12.109,27.174-31.836,32.918-58.637C417.794,39.533,417.609,23.795,417.599,23.134z"/>
<path style="fill:#00C47A;" d="M271.486,123.008l10.248,3.225c0.618,0.195,15.367,4.784,34.332,6.161
	c3.691,0.268,7.288,0.402,10.786,0.402c21.957,0,40.077-5.272,53.974-15.724c16.099-12.109,27.174-31.836,32.918-58.637
	c4.051-18.902,3.865-34.641,3.855-35.302l-0.163-10.926"/>
<path style="fill:#FC0023;" d="M181.743,320.286c-13.789-5.25-25.742-6.214-33.33-6.102c-5.597-5.137-15.159-12.361-28.947-17.611
	c-22.102-8.414-45.973-6.733-67.22,4.735c-19.912,10.747-35.538,28.907-44.001,51.135c-12.077,31.719-10.793,65.075,3.617,93.922
	c13.099,26.221,36.497,47.308,64.195,57.855c13.625,5.188,28.166,7.779,42.669,7.779c14.979,0,29.916-2.765,43.746-8.288
	c29.945-11.958,53.089-36.013,65.167-67.732c8.463-22.228,8.872-46.182,1.151-67.45
	C220.552,345.835,203.843,328.702,181.743,320.286z"/>
<path style="fill:#CC001C;" d="M51.05,491.082c7.768,5.336,16.168,9.775,25.007,13.14c13.625,5.188,28.166,7.779,42.669,7.779
	c14.979,0,29.916-2.765,43.746-8.288c29.945-11.958,53.089-36.013,65.167-67.732c8.463-22.228,8.872-46.182,1.151-67.45
	c-8.24-22.696-24.948-39.829-47.049-48.244c-13.789-5.25-25.742-6.214-33.33-6.102"/>
<path style="fill:#FC0023;" d="M503.757,352.445c-8.464-22.228-24.09-40.388-44-51.135c-21.248-11.468-45.12-13.151-67.221-4.735
	c-13.787,5.249-23.35,12.474-28.946,17.611c-7.586-0.11-19.543,0.852-33.331,6.102c-22.1,8.415-38.808,25.548-47.048,48.244
	c-7.721,21.268-7.312,45.223,1.15,67.45l0,0c12.078,31.719,35.223,55.774,65.168,67.732c13.831,5.522,28.766,8.288,43.745,8.288
	c14.502,0,29.046-2.591,42.671-7.779c27.697-10.546,51.096-31.633,64.195-57.854C514.55,417.521,515.834,384.165,503.757,352.445z"
	/>
<path style="fill:#CC001C;" d="M461.497,490.705c16.33-11.35,29.822-26.68,38.644-44.337c14.409-28.847,15.693-62.203,3.616-93.922
	c-8.464-22.228-24.09-40.388-44-51.135c-21.248-11.468-45.12-13.151-67.221-4.735c-13.787,5.249-23.35,12.474-28.946,17.611"/>
<polygon style="fill:#816244;" points="383.768,322.518 271.002,121.035 271.002,0 240.999,0 240.999,121.035 128.233,322.518 
	154.416,337.171 256,155.664 357.586,337.171 "/>
<polygon style="fill:#56412D;" points="271.002,121.035 271.002,0 256,0 256,155.664 357.586,337.171 383.768,322.518 "/>
<g>
</g>
<g>
</g>
<g>
</g>
<g>
</g>
<g>
</g>
<g>
</g>
<g>
</g>
<g>
</g>
<g>
</g>
<g>
</g>
<g>
</g>
<g>
</g>
<g>
</g>
<g>
</g>
<g>
</g>
</svg>
