<?xml version="1.0" encoding="iso-8859-1"?>
<!-- Generator: Adobe Illustrator 19.0.0, SVG Export Plug-In . SVG Version: 6.00 Build 0)  -->
<svg version="1.1" id="Capa_1" xmlns="http://www.w3.org/2000/svg" xmlns:xlink="http://www.w3.org/1999/xlink" x="0px" y="0px"
	 viewBox="0 0 512 512" style="enable-background:new 0 0 512 512;" xml:space="preserve">
<path style="fill:#838286;" d="M352,244.336v-30c27.019,0,49-21.981,49-49c0-27.019-21.981-49-49-49s-49,21.981-49,49h-30
	c0-43.561,35.44-79,79-79s79,35.439,79,79S395.56,244.336,352,244.336z"/>
<rect y="214.333" style="fill:#6FC8F1;" width="512" height="211.33"/>
<rect x="254.6" y="214.333" style="fill:#41A0CC;" width="257.4" height="211.33"/>
<path style="fill:#EFEFF0;" d="M89.667,320.004c0-27.089-22.038-49.127-49.127-49.127H0v98.254h40.54
	C67.629,369.131,89.667,347.092,89.667,320.004z"/>
<path style="fill:#DFDEE0;" d="M471.46,270.876c-27.089,0-49.127,22.038-49.127,49.127s22.038,49.127,49.127,49.127H512v-98.254
	L471.46,270.876L471.46,270.876z"/>
<path style="fill:#E2F4FC;" d="M322.667,367.004h-73.876l-43.458-28.972l-39.68,26.453l-16.641-24.962l29.279-19.519l-29.278-19.519
	l16.641-24.962l39.68,26.453l43.457-28.972h73.876c25.916,0,47,21.084,47,47C369.667,345.919,348.583,367.004,322.667,367.004z"/>
<g>
	<path style="fill:#B7E4F8;" d="M322.667,273.004h-68.068v94h68.068c25.916,0,47-21.084,47-47
		C369.667,294.088,348.583,273.004,322.667,273.004z"/>
	<path style="fill:#B7E4F8;" d="M365.942,301.671c-7.158-16.833-23.86-28.667-43.275-28.667h-73.876l-42.999,28.667H365.942z"/>
</g>
<path style="fill:#6FC8F1;" d="M254.599,301.671h111.343c-7.158-16.833-23.86-28.667-43.275-28.667h-68.068V301.671z"/>
<g>
</g>
<g>
</g>
<g>
</g>
<g>
</g>
<g>
</g>
<g>
</g>
<g>
</g>
<g>
</g>
<g>
</g>
<g>
</g>
<g>
</g>
<g>
</g>
<g>
</g>
<g>
</g>
<g>
</g>
</svg>
