<?xml version="1.0" encoding="iso-8859-1"?>
<!-- Generator: Adobe Illustrator 19.0.0, SVG Export Plug-In . SVG Version: 6.00 Build 0)  -->
<svg version="1.1" id="Capa_1" xmlns="http://www.w3.org/2000/svg" xmlns:xlink="http://www.w3.org/1999/xlink" x="0px" y="0px"
	 viewBox="0 0 512 512" style="enable-background:new 0 0 512 512;" xml:space="preserve">
<path style="fill:#7985EC;" d="M423.207,163.181c-8.34-22.651-24.423-49.652-53.676-49.652c-63.997,0-112.657,6.915-153.135,21.762
	c-32.204,11.812-57.321,27.958-81.068,45.419c-3.703-5.61-7.928-10.573-12.646-14.847c-38.31-34.695-107.229-20.861-110.146-20.255
	l-10.697,2.223l-1.164,10.864c-0.287,2.674-6.125,60.934,22.612,97.304c-28.741,36.368-22.9,94.63-22.613,97.305l1.164,10.864
	l10.697,2.223c2.916,0.606,71.834,14.44,110.145-20.254c4.691-4.25,8.896-9.18,12.583-14.751
	c55.416,40.904,108.083,67.084,234.266,67.084c29.254,0,45.337-27.001,53.676-49.652c9.107-24.737,14.123-57.7,14.123-92.818
	S432.314,187.918,423.207,163.181z"/>
<path style="fill:#5B64B1;" d="M135.264,331.385c55.416,40.904,108.083,67.084,234.266,67.084c29.254,0,45.337-27.001,53.676-49.652
	c9.107-24.737,14.123-57.7,14.123-92.818s-5.016-68.081-14.123-92.818c-8.34-22.651-24.423-49.652-53.676-49.652
	c-63.997,0-112.657,6.915-153.135,21.762c-32.204,11.812-57.321,27.958-81.068,45.419l-81.99,75.29L135.264,331.385z"/>
<circle style="fill:#FF9900;" cx="369.527" cy="255.997" r="127.469"/>
<path style="fill:#FF5D00;" d="M369.531,383.47C439.93,383.47,497,326.399,497,256s-57.07-127.47-127.47-127.47V383.47z"/>
<g>
	<path style="fill:#FFE1B4;" d="M369.531,398.469c-78.559,0-142.471-63.911-142.471-142.47s63.911-142.47,142.471-142.47
		c78.558,0,142.47,63.911,142.47,142.47S448.088,398.469,369.531,398.469z M369.531,143.53c-62.017,0-112.471,50.454-112.471,112.47
		s50.454,112.47,112.471,112.47c62.016,0,112.47-50.455,112.47-112.47S431.546,143.53,369.531,143.53z"/>
	<circle style="fill:#FFE1B4;" cx="369.527" cy="255.997" r="39.473"/>
</g>
<g>
	<path style="fill:#FFCB7D;" d="M369.531,295.472c21.8,0,39.473-17.672,39.473-39.473c0-21.8-17.672-39.473-39.473-39.473V295.472z"
		/>
	<path style="fill:#FFCB7D;" d="M369.531,113.53L369.531,113.53v30l0,0c62.016,0,112.47,50.454,112.47,112.47
		s-50.455,112.469-112.47,112.469l0,0v30l0,0c78.558,0,142.47-63.911,142.47-142.47C512,177.442,448.088,113.53,369.531,113.53z"/>
</g>
<g>
</g>
<g>
</g>
<g>
</g>
<g>
</g>
<g>
</g>
<g>
</g>
<g>
</g>
<g>
</g>
<g>
</g>
<g>
</g>
<g>
</g>
<g>
</g>
<g>
</g>
<g>
</g>
<g>
</g>
</svg>
