<?xml version="1.0" encoding="iso-8859-1"?>
<!-- Generator: Adobe Illustrator 19.0.0, SVG Export Plug-In . SVG Version: 6.00 Build 0)  -->
<svg version="1.1" id="Capa_1" xmlns="http://www.w3.org/2000/svg" xmlns:xlink="http://www.w3.org/1999/xlink" x="0px" y="0px"
	 viewBox="0 0 512 512" style="enable-background:new 0 0 512 512;" xml:space="preserve">
<path style="fill:#FFC42D;" d="M221.925,425.667V86.334H57.667C25.869,86.334,0,112.203,0,144c0,22.244,12.698,42.088,32,51.662
	v230.004L221.925,425.667L221.925,425.667z"/>
<path style="fill:#FF9900;" d="M221.925,196.191V86.334H57.667C25.869,86.334,0,112.203,0,144c0,22.244,12.698,42.088,32,51.662
	L221.925,196.191z"/>
<path style="fill:#FFEBCC;" d="M454.333,86.334H209c-31.797,0-57.667,25.869-57.667,57.667c0,22.244,12.697,42.088,32,51.662
	v230.004H480V195.661c19.303-9.574,32-29.418,32-51.662C512,112.203,486.131,86.334,454.333,86.334z"/>
<path style="fill:#FFE1B4;" d="M454.333,86.334H330.667v339.333H480V195.661c19.303-9.574,32-29.418,32-51.662
	C512,112.203,486.131,86.334,454.333,86.334z"/>
<g>
</g>
<g>
</g>
<g>
</g>
<g>
</g>
<g>
</g>
<g>
</g>
<g>
</g>
<g>
</g>
<g>
</g>
<g>
</g>
<g>
</g>
<g>
</g>
<g>
</g>
<g>
</g>
<g>
</g>
</svg>
