<?xml version="1.0" encoding="iso-8859-1"?>
<!-- Generator: Adobe Illustrator 19.0.0, SVG Export Plug-In . SVG Version: 6.00 Build 0)  -->
<svg version="1.1" id="Capa_1" xmlns="http://www.w3.org/2000/svg" xmlns:xlink="http://www.w3.org/1999/xlink" x="0px" y="0px"
	 viewBox="0 0 512 512" style="enable-background:new 0 0 512 512;" xml:space="preserve">
<path style="fill:#FFF6CD;" d="M380.05,443.434c25.081-28.859,40.284-66.52,40.284-107.667c0-90.614-73.72-164.333-164.333-164.333
	S91.666,245.153,91.666,335.767c0,41.147,15.203,78.808,40.284,107.667H380.05z"/>
<g>
	<path style="fill:#FFE981;" d="M380.05,443.434c25.081-28.859,40.284-66.52,40.284-107.667c0-90.614-73.72-164.333-164.333-164.333
		v272L380.05,443.434L380.05,443.434z"/>
	<path style="fill:#FFE981;" d="M337.354,401.434c14.529-17.965,23.246-40.815,23.246-65.667c0-57.677-46.923-104.6-104.6-104.6
		s-104.6,46.923-104.6,104.6c0,24.851,8.717,47.701,23.246,65.667H337.354z"/>
</g>
<path style="fill:#FFDB2D;" d="M337.354,401.434c14.529-17.965,23.246-40.815,23.246-65.667c0-57.677-46.923-104.6-104.6-104.6
	v170.267H337.354z"/>
<rect x="390.33" y="111.77" style="fill:#FFF6CD;" width="30" height="234.67"/>
<rect x="64" y="103.79" style="fill:#56412D;" width="373.33" height="30"/>
<polygon style="fill:#816244;" points="83.315,11.9 79.604,26.434 75.894,40.967 437.623,133.324 441.333,118.79 445.044,104.256 
	"/>
<path style="fill:#FF4F19;" d="M38.333,343.434v3C38.333,431.165,107.268,500.1,192,500.1h128
	c84.732,0,153.666-68.935,153.666-153.667v-3H38.333V343.434z"/>
<path style="fill:#FC0023;" d="M256,343.434V500.1h64c84.732,0,153.666-68.935,153.666-153.667v-3H256V343.434z"/>
<rect y="331.43" style="fill:#FFCE85;" width="512" height="30"/>
<rect x="256" y="331.43" style="fill:#FFB23E;" width="256" height="30"/>
<g>
</g>
<g>
</g>
<g>
</g>
<g>
</g>
<g>
</g>
<g>
</g>
<g>
</g>
<g>
</g>
<g>
</g>
<g>
</g>
<g>
</g>
<g>
</g>
<g>
</g>
<g>
</g>
<g>
</g>
</svg>
