<?xml version="1.0" encoding="iso-8859-1"?>
<!-- Generator: Adobe Illustrator 19.0.0, SVG Export Plug-In . SVG Version: 6.00 Build 0)  -->
<svg version="1.1" id="Capa_1" xmlns="http://www.w3.org/2000/svg" xmlns:xlink="http://www.w3.org/1999/xlink" x="0px" y="0px"
	 viewBox="0 0 512 512" style="enable-background:new 0 0 512 512;" xml:space="preserve">
<path style="fill:#60DD4D;" d="M410.819,63.673l-0.161-10.759l-10.29-3.147c-0.613-0.187-15.231-4.607-33.997-5.87
	c-26.569-1.79-48.079,3.346-63.921,15.262c-15.878,11.943-26.715,31.34-32.211,57.653c-3.875,18.554-3.571,33.991-3.556,34.639
	l0.242,10.578l10.093,3.176c0.608,0.191,15.134,4.711,33.81,6.067c3.635,0.264,7.177,0.396,10.622,0.396
	c21.623,0,39.469-5.192,53.153-15.485c15.854-11.925,26.761-31.353,32.417-57.745C411.012,79.823,410.829,64.324,410.819,63.673z"/>
<path style="fill:#00C47A;" d="M266.927,162.029l10.093,3.176c0.608,0.191,15.134,4.711,33.81,6.067
	c3.635,0.264,7.177,0.396,10.622,0.396c21.623,0,39.469-5.192,53.153-15.485c15.854-11.925,26.761-31.353,32.417-57.745
	c3.99-18.615,3.806-34.114,3.797-34.766l-0.161-10.759"/>
<polygon style="fill:#816244;" points="271.445,149.098 241.426,149.098 241.426,80.921 207.89,13.345 234.78,0 271.445,73.883 "/>
<path style="fill:#7985EC;" d="M256,353.897c-43.589,0-79.051,35.462-79.051,79.051S212.411,512,256,512
	s79.051-35.462,79.051-79.051C335.051,389.359,299.589,353.897,256,353.897z"/>
<path style="fill:#5B64B1;" d="M256,512c43.589,0,79.051-35.462,79.051-79.051S299.588,353.897,256,353.897"/>
<path style="fill:#7985EC;" d="M191.958,244.004c-43.589,0-79.051,35.462-79.051,79.051s35.462,79.051,79.051,79.051
	s79.051-35.462,79.051-79.051S235.548,244.004,191.958,244.004z"/>
<path style="fill:#5B64B1;" d="M191.958,402.107c43.589,0,79.051-35.462,79.051-79.051s-35.463-79.051-79.051-79.051"/>
<path style="fill:#7985EC;" d="M320.042,244.004c-43.589,0-79.051,35.462-79.051,79.051s35.462,79.051,79.051,79.051
	s79.051-35.462,79.051-79.051S363.631,244.004,320.042,244.004z"/>
<path style="fill:#5B64B1;" d="M320.042,402.107c43.588,0,79.051-35.462,79.051-79.051s-35.463-79.051-79.051-79.051"/>
<path style="fill:#7985EC;" d="M127.917,133.265c-43.589,0-79.051,35.462-79.051,79.051s35.462,79.051,79.051,79.051
	s79.051-35.462,79.051-79.051S171.506,133.265,127.917,133.265z"/>
<path style="fill:#5B64B1;" d="M127.917,291.368c43.589,0,79.051-35.462,79.051-79.051s-35.462-79.051-79.051-79.051"/>
<path style="fill:#7985EC;" d="M256,133.265c-43.589,0-79.051,35.462-79.051,79.051s35.462,79.051,79.051,79.051
	s79.051-35.462,79.051-79.051S299.589,133.265,256,133.265z"/>
<path style="fill:#5B64B1;" d="M256,291.368c43.589,0,79.051-35.462,79.051-79.051S299.588,133.265,256,133.265"/>
<path style="fill:#7985EC;" d="M384.083,133.265c-43.589,0-79.051,35.462-79.051,79.051s35.462,79.051,79.051,79.051
	s79.051-35.462,79.051-79.051S427.672,133.265,384.083,133.265z"/>
<path style="fill:#5B64B1;" d="M384.083,291.368c43.588,0,79.051-35.462,79.051-79.051s-35.463-79.051-79.051-79.051"/>
<g>
</g>
<g>
</g>
<g>
</g>
<g>
</g>
<g>
</g>
<g>
</g>
<g>
</g>
<g>
</g>
<g>
</g>
<g>
</g>
<g>
</g>
<g>
</g>
<g>
</g>
<g>
</g>
<g>
</g>
</svg>
