<?xml version="1.0" encoding="iso-8859-1"?>
<!-- Generator: Adobe Illustrator 19.0.0, SVG Export Plug-In . SVG Version: 6.00 Build 0)  -->
<svg version="1.1" id="Capa_1" xmlns="http://www.w3.org/2000/svg" xmlns:xlink="http://www.w3.org/1999/xlink" x="0px" y="0px"
	 viewBox="0 0 512 512" style="enable-background:new 0 0 512 512;" xml:space="preserve">
<path style="fill:#FFDB2D;" d="M382.709,271.793c-10.557-15.694-15.971-34.167-15.657-53.422l0.013-1.215
	c0.349-61.168-48.787-111.605-109.53-112.434c-29.83-0.415-57.983,10.935-79.272,31.936c-21.493,21.202-33.33,49.558-33.33,79.845
	c0,0.922,0.011,1.841,0.033,2.762c0.445,18.414-5.013,36.634-15.785,52.691c-16.618,24.771-25.642,53.705-26.097,83.674
	c-0.629,41.431,15.028,80.612,44.087,110.324c28.755,29.402,67.016,45.753,107.734,46.042c0.369,0.002,0.736,0.004,1.105,0.004
	c40.457,0,78.553-15.722,107.376-44.342c29.373-29.166,45.549-68.101,45.549-109.632
	C408.935,327.116,399.866,297.297,382.709,271.793z"/>
<path style="fill:#FFC42D;" d="M257.535,104.723l-2.631,407.273c0.369,0.002,0.736,0.004,1.105,0.004
	c40.457,0,78.553-15.722,107.376-44.342c29.373-29.166,45.549-68.101,45.549-109.632c0-30.91-9.068-60.729-26.226-86.232
	c-10.557-15.694-15.971-34.167-15.657-53.422l0.013-1.215C367.414,155.989,318.279,105.551,257.535,104.723"/>
<polygon style="fill:#816244;" points="272.5,124.474 242.5,124.474 242.5,80.869 208.986,13.336 235.859,0 272.5,73.835 "/>
<path style="fill:#60DD4D;" d="M385.376,37.201l-0.143-9.553l-9.135-2.794c-0.545-0.167-13.523-4.09-30.185-5.212
	c-23.59-1.589-42.688,2.971-56.753,13.551c-14.098,10.603-23.719,27.826-28.599,51.189c-3.441,16.474-3.171,30.18-3.158,30.755
	l0.215,9.391l8.96,2.82c0.54,0.17,13.437,4.183,30.019,5.387c3.228,0.234,6.372,0.351,9.431,0.351
	c19.198,0,35.043-4.61,47.193-13.749c14.076-10.587,23.76-27.837,28.782-51.27C385.546,51.54,385.384,37.778,385.376,37.201z"/>
<path style="fill:#00C47A;" d="M257.618,124.528l8.96,2.82c0.54,0.17,13.437,4.183,30.019,5.387
	c3.228,0.234,6.372,0.351,9.431,0.351c19.198,0,35.043-4.61,47.193-13.749c14.076-10.587,23.76-27.837,28.782-51.27
	c3.542-16.528,3.38-30.289,3.371-30.867l-0.143-9.553"/>
<g>
</g>
<g>
</g>
<g>
</g>
<g>
</g>
<g>
</g>
<g>
</g>
<g>
</g>
<g>
</g>
<g>
</g>
<g>
</g>
<g>
</g>
<g>
</g>
<g>
</g>
<g>
</g>
<g>
</g>
</svg>
