<?xml version="1.0" encoding="iso-8859-1"?>
<!-- Generator: Adobe Illustrator 19.0.0, SVG Export Plug-In . SVG Version: 6.00 Build 0)  -->
<svg version="1.1" id="Capa_1" xmlns="http://www.w3.org/2000/svg" xmlns:xlink="http://www.w3.org/1999/xlink" x="0px" y="0px"
	 viewBox="0 0 512 512" style="enable-background:new 0 0 512 512;" xml:space="preserve">
<path style="fill:#FFE981;" d="M268.667,122.158L165.293,14.82l-10.19,5.88c-29.329,16.924-55.508,38.387-77.807,63.79
	c-21.749,24.777-39.354,52.768-52.326,83.194c-12.966,30.413-20.979,62.5-23.817,95.37c-2.908,33.675-0.308,67.431,7.728,100.33
	l2.794,11.441h256.991V122.158H268.667z"/>
<path style="fill:#FF9900;" d="M215.669,67.128L165.293,14.82l-10.19,5.88c-29.329,16.924-55.508,38.387-77.807,63.79
	c-21.749,24.777-39.354,52.768-52.326,83.194c-12.966,30.413-20.979,62.5-23.817,95.37c-2.908,33.675-0.308,67.431,7.728,100.33
	l2.794,11.441h74.804C66.425,255.904,116.918,135.951,215.669,67.128z"/>
<path style="fill:#FC0023;" d="M177,232.511c-25.916,0-47,21.084-47,47s21.084,47,47,47s47-21.084,47-47
	S202.916,232.511,177,232.511z"/>
<path style="fill:#CC001C;" d="M177,326.511c25.916,0,47-21.084,47-47s-21.084-47-47-47V326.511z"/>
<path style="fill:#FFE257;" d="M256,109.006v265.82h42.667v90.353c0,17.673,14.327,32,32,32l0,0c17.673,0,32-14.327,32-32v-90.353
	H512L256,109.006z"/>
<path style="fill:#CC001C;" d="M415.464,272.642c-29.159,29.159-76.435,29.159-105.595,0c-29.159-29.159-29.159-76.435,0-105.595
	L415.464,272.642z"/>
<g>
</g>
<g>
</g>
<g>
</g>
<g>
</g>
<g>
</g>
<g>
</g>
<g>
</g>
<g>
</g>
<g>
</g>
<g>
</g>
<g>
</g>
<g>
</g>
<g>
</g>
<g>
</g>
<g>
</g>
</svg>
