<?xml version="1.0" encoding="iso-8859-1"?>
<!-- Generator: Adobe Illustrator 19.0.0, SVG Export Plug-In . SVG Version: 6.00 Build 0)  -->
<svg version="1.1" id="Capa_1" xmlns="http://www.w3.org/2000/svg" xmlns:xlink="http://www.w3.org/1999/xlink" x="0px" y="0px"
	 viewBox="0 0 512.006 512.006" style="enable-background:new 0 0 512.006 512.006;" xml:space="preserve">
<rect x="59.006" y="181.589" transform="matrix(-9.599995e-004 -1 1 -9.599995e-004 59.2375 452.3579)" style="fill:#816244;" width="393.149" height="29.999"/>
<polygon style="fill:#56412D;" points="256.12,393.167 270.766,393.153 270.388,0.006 256.12,0.02 "/>
<rect x="190.91" y="2.098" transform="matrix(-0.9687 0.2483 -0.2483 -0.9687 454.7016 340.0017)" style="fill:#816244;" width="30" height="393.155"/>
<path style="fill:#FFF6CD;" d="M408.032,225.229c-4.613-9.562-13.188-14.893-20.075-19.175c-3.295-2.048-7.028-4.37-8.459-6.161
	c-1.456-1.824-2.841-5.825-4.18-9.693c-2.646-7.641-5.937-17.149-14.187-23.736c-8.22-6.564-18.199-7.668-26.219-8.554
	c-4.092-0.453-8.321-0.92-10.463-1.954c-2.02-0.974-5.088-4.07-7.795-6.802c-5.733-5.787-12.87-12.988-23.298-15.358
	c-10.121-2.3-19.508,1.016-27.051,3.679c-3.95,1.395-8.036,2.837-10.541,2.837c-2.505,0-6.591-1.442-10.541-2.837
	c-7.544-2.664-16.932-5.979-27.05-3.679c-10.43,2.371-17.565,9.572-23.3,15.359c-2.706,2.732-5.774,5.828-7.793,6.801
	c-2.142,1.033-6.372,1.501-10.463,1.953c-8.02,0.887-17.999,1.99-26.22,8.554c-8.249,6.587-11.54,16.095-14.185,23.734
	c-1.34,3.869-2.725,7.87-4.182,9.695c-1.431,1.792-5.164,4.113-8.459,6.161c-6.889,4.283-15.463,9.614-20.075,19.175
	c-4.55,9.431-3.403,19.38-2.481,27.376c0.474,4.117,0.965,8.375,0.425,10.749l29.253,6.65l250.139-0.001l29.253-6.647
	c-0.539-2.374-0.049-6.632,0.426-10.75C411.435,244.611,412.582,234.661,408.032,225.229z"/>
<path style="fill:#FFE981;" d="M408.032,225.229c-4.613-9.562-13.188-14.893-20.075-19.175c-3.295-2.048-7.028-4.37-8.459-6.161
	c-1.456-1.824-2.841-5.825-4.18-9.693c-2.646-7.641-5.937-17.149-14.187-23.736c-8.22-6.564-18.199-7.668-26.219-8.554
	c-4.092-0.453-8.321-0.92-10.463-1.954c-2.02-0.974-5.088-4.07-7.795-6.802c-5.733-5.787-12.87-12.988-23.298-15.358
	c-10.121-2.3-19.508,1.016-27.051,3.679c-3.777,1.334-7.662,2.696-10.186,2.815v129.712l124.714-0.001l29.253-6.647
	c-0.539-2.374-0.049-6.632,0.426-10.75C411.435,244.611,412.582,234.661,408.032,225.229z"/>
<polygon style="fill:#FC0023;" points="461.646,371.202 409.569,262.346 101.427,262.346 50.359,382.389 77.894,394.296 
	111.478,316.633 147.646,512.006 364.595,512.006 401.188,314.342 434.584,384.149 "/>
<polygon style="fill:#CC001C;" points="409.569,262.346 256.12,262.346 256.12,512.006 364.595,512.006 401.188,314.342 
	434.584,384.149 461.646,371.202 "/>
<circle style="fill:#FFFFFF;" cx="256.115" cy="384.004" r="42.666"/>
<path style="fill:#FFE1B4;" d="M256.12,426.674c23.563,0,42.666-19.102,42.666-42.666s-19.102-42.666-42.666-42.666V426.674z"/>
<path style="fill:#B7E4F8;" d="M256.12,441.674c-31.797,0-57.665-25.868-57.665-57.665s25.868-57.664,57.665-57.664
	s57.665,25.868,57.665,57.664S287.917,441.674,256.12,441.674z M256.12,356.343c-15.256,0-27.666,12.411-27.666,27.665
	s12.411,27.666,27.666,27.666s27.666-12.411,27.666-27.666S271.376,356.343,256.12,356.343z"/>
<path style="fill:#4BBAED;" d="M256.12,326.344v29.999c15.256,0,27.666,12.411,27.666,27.665s-12.411,27.666-27.666,27.666v29.999
	c31.797,0,57.665-25.868,57.665-57.665S287.917,326.344,256.12,326.344z"/>
<rect x="193.117" y="185.35" style="fill:#80E471;" width="29.999" height="29.999"/>
<rect x="289.114" y="204.68" style="fill:#FF5D00;" width="29.999" height="29.999"/>
<g>
</g>
<g>
</g>
<g>
</g>
<g>
</g>
<g>
</g>
<g>
</g>
<g>
</g>
<g>
</g>
<g>
</g>
<g>
</g>
<g>
</g>
<g>
</g>
<g>
</g>
<g>
</g>
<g>
</g>
</svg>
