<?xml version="1.0" encoding="iso-8859-1"?>
<!-- Generator: Adobe Illustrator 19.0.0, SVG Export Plug-In . SVG Version: 6.00 Build 0)  -->
<svg version="1.1" id="Capa_1" xmlns="http://www.w3.org/2000/svg" xmlns:xlink="http://www.w3.org/1999/xlink" x="0px" y="0px"
	 viewBox="0 0 512 512" style="enable-background:new 0 0 512 512;" xml:space="preserve">
<path style="fill:#AC825A;" d="M319.499,175.624L303.896,0h-95.791l-15.603,175.624c-9.773,12.861-34.617,48.057-34.617,73.408V512
	h196.232V249.032C354.116,223.681,329.272,188.485,319.499,175.624z"/>
<path style="fill:#816244;" d="M319.499,175.624L303.896,0H256v512h98.116V249.032C354.116,223.681,329.272,188.485,319.499,175.624
	z"/>
<rect x="157.88" y="260.57" style="fill:#FFC42D;" width="196.23" height="170.43"/>
<rect x="256" y="260.57" style="fill:#FF9900;" width="98.12" height="170.43"/>
<rect x="208.11" y="330.78" style="fill:#FC0023;" width="95.78" height="30"/>
<rect x="256" y="330.78" style="fill:#CC001C;" width="47.891" height="30"/>
<polygon style="fill:#FFC42D;" points="318,53.333 194,53.333 202.667,0 309.333,0 "/>
<polygon style="fill:#FF9900;" points="256,53.333 318,53.333 309.333,0 256,0 "/>
<g>
</g>
<g>
</g>
<g>
</g>
<g>
</g>
<g>
</g>
<g>
</g>
<g>
</g>
<g>
</g>
<g>
</g>
<g>
</g>
<g>
</g>
<g>
</g>
<g>
</g>
<g>
</g>
<g>
</g>
</svg>
