<?xml version="1.0" encoding="iso-8859-1"?>
<!-- Generator: Adobe Illustrator 19.0.0, SVG Export Plug-In . SVG Version: 6.00 Build 0)  -->
<svg version="1.1" id="Capa_1" xmlns="http://www.w3.org/2000/svg" xmlns:xlink="http://www.w3.org/1999/xlink" x="0px" y="0px"
	 viewBox="0 0 512 512" style="enable-background:new 0 0 512 512;" xml:space="preserve">
<path style="fill:#CC001C;" d="M56.805,70.287C41.335,74.007,27.778,82.436,17.6,94.665s-16.007,27.09-16.858,42.976L0,151.51
	l95.429,39.722l33.292-38.861L66.497,67.957L56.805,70.287z"/>
<path style="fill:#870013;" d="M511.258,137.643c-0.851-15.887-6.679-30.749-16.857-42.977s-23.735-20.659-39.205-24.377
	l-9.693-2.33l-62.224,84.412l33.291,38.861L512,151.51L511.258,137.643z"/>
<polygon style="fill:#DFDEE0;" points="304.822,270.227 304.822,317.289 256,357.974 207.179,317.289 207.179,270.227 
	177.126,270.227 177.126,331.365 240.973,384.573 240.973,444.043 271.027,444.043 271.027,384.573 334.875,331.365 
	334.875,270.227 "/>
<polygon style="fill:#BEBDC2;" points="304.822,270.227 304.822,317.289 256,357.974 256,357.974 256,444.043 271.027,444.043 
	271.027,384.573 334.875,331.365 334.875,270.227 "/>
<g>
	<path style="fill:#AEADB3;" d="M256,366.893L256,366.893L256,366.893z"/>
</g>
<path style="fill:#FF5D00;" d="M450.181,126.884c-6.822-8.953-15.76-16.266-25.848-21.151c-9.73-4.711-20.597-7.201-31.426-7.201
	l0,0h-0.003c-15.872,0.001-30.945,5.094-43.589,14.727c-27,20.575-59.268,31.449-93.316,31.449
	c-34.049,0-66.316-10.874-93.316-31.449c-12.643-9.635-27.716-14.728-43.589-14.728c-10.828,0-21.696,2.49-31.426,7.201
	c-10.089,4.885-19.028,12.198-25.85,21.151c-24.053,31.564-17.942,76.813,13.622,100.865c25.405,19.358,53.546,34.419,83.644,44.766
	c31.144,10.706,63.751,16.135,96.915,16.135c33.163,0,65.77-5.429,96.915-16.135c30.096-10.345,58.238-25.407,83.643-44.766
	C468.122,203.697,474.234,158.448,450.181,126.884z"/>
<path style="fill:#E34400;" d="M450.181,126.884c-6.822-8.953-15.76-16.266-25.848-21.151c-9.73-4.711-20.597-7.201-31.426-7.201
	l0,0h-0.003c-15.872,0.001-30.945,5.094-43.589,14.727c-27,20.575-59.268,31.449-93.316,31.449l0,0V288.65l0,0
	c33.163,0,65.77-5.429,96.915-16.135c30.096-10.345,58.238-25.407,83.643-44.766C468.122,203.697,474.234,158.448,450.181,126.884z"
	/>
<path style="fill:#CC001C;" d="M152.592,180.824l37.968-50.625c-9.055-4.262-17.735-9.437-25.944-15.497l-36.067,48.089
	L152.592,180.824z"/>
<path style="fill:#870013;" d="M383.451,162.792l-36.067-48.089c-8.209,6.06-16.889,11.235-25.944,15.497l37.968,50.625
	L383.451,162.792z"/>
<path style="fill:#CC001C;" d="M243.043,202.106l45.634-60.845c-10.622,2.28-21.553,3.449-32.677,3.449
	c-2.458,0-4.906-0.063-7.344-0.176L219,184.074L243.043,202.106z"/>
<g>
</g>
<g>
</g>
<g>
</g>
<g>
</g>
<g>
</g>
<g>
</g>
<g>
</g>
<g>
</g>
<g>
</g>
<g>
</g>
<g>
</g>
<g>
</g>
<g>
</g>
<g>
</g>
<g>
</g>
</svg>
