<?xml version="1.0" encoding="iso-8859-1"?>
<!-- Generator: Adobe Illustrator 19.0.0, SVG Export Plug-In . SVG Version: 6.00 Build 0)  -->
<svg version="1.1" id="Capa_1" xmlns="http://www.w3.org/2000/svg" xmlns:xlink="http://www.w3.org/1999/xlink" x="0px" y="0px"
	 viewBox="0 0 512 512" style="enable-background:new 0 0 512 512;" xml:space="preserve">
<path style="fill:#FFE1B4;" d="M160.773,103.752l-11.885,2.971C90.936,121.211,39.142,155.403,3.048,203L0,207.019v289.716h512
	V207.402L160.773,103.752z"/>
<polygon style="fill:#FFCB7D;" points="256,130.021 256,496.735 512,496.735 512,207.402 "/>
<path style="fill:#FF4F19;" d="M512,289.735v-82.333l-351.227-103.65l-11.885,2.971C90.936,121.211,39.142,155.403,3.048,203
	L0,207.019v82.716H512z"/>
<polygon style="fill:#FFC42D;" points="491.029,414.046 412.447,380.046 334.226,414.046 256.006,380.046 177.784,414.046 
	99.559,380.046 20.971,414.046 0,404.932 0,437.643 20.971,446.757 99.559,412.757 177.784,446.757 256.006,412.758 
	334.226,446.758 412.447,412.758 491.029,446.757 512,437.643 512,404.932 "/>
<polyline style="fill:#FF9900;" points="256.006,412.758 334.226,446.758 412.447,412.758 491.029,446.757 512,437.643 512,404.932 
	491.029,414.046 412.447,380.046 334.226,414.046 256.006,380.046 "/>
<path style="fill:#FF4F19;" d="M211.667,269.735v58.334c0,17.673-14.327,32-32,32l0,0c-17.673,0-32-14.327-32-32v-58.334"/>
<polygon style="fill:#FF9900;" points="412.447,412.758 334.226,446.758 256.006,412.758 177.784,446.757 99.559,412.757 
	20.971,446.757 0,437.643 0,496.735 512,496.735 512,437.643 491.029,446.757 "/>
<polygon style="fill:#FF5D00;" points="491.029,446.757 412.447,412.758 334.226,446.758 256.006,412.758 256,412.76 256,496.735 
	512,496.735 512,437.643 "/>
<polygon style="fill:#FC0023;" points="256,131.854 256,289.735 512,289.735 512,207.402 "/>
<polygon style="fill:#56412D;" points="256,207.402 512,207.402 256,130.021 "/>
<path style="fill:#816244;" d="M256,130.021l-95.227-26.269l-11.885,2.971C90.936,121.211,39.142,155.403,3.048,203L0,207.019v0.383
	h256V130.021z"/>
<rect x="231.282" y="18.786" transform="matrix(-0.8541 -0.5201 0.5201 -0.8541 431.602 217.3202)" style="fill:#56412D;" width="30" height="58.677"/>
<path style="fill:#FC0023;" d="M259.431,63.635c-8.823-4.072-16.634-5.245-21.625-5.514c-3.446-3.628-9.403-8.807-18.225-12.879
	c-14.142-6.527-29.903-6.5-44.382,0.076c-13.569,6.163-24.656,17.389-31.221,31.613c-9.368,20.297-10.03,42.272-1.864,61.877
	c7.423,17.821,21.845,32.733,39.569,40.913c8.718,4.024,18.156,6.383,27.686,7.038c9.842,0.676,19.782-0.466,29.119-3.47
	c20.216-6.505,36.509-21.265,45.878-41.562c6.564-14.223,7.915-29.944,3.802-44.268C283.777,82.174,273.572,70.162,259.431,63.635z"
	/>
<path style="fill:#CC001C;" d="M165.844,169.958c4.863,3.857,10.182,7.153,15.838,9.763c8.718,4.024,18.156,6.383,27.686,7.038
	c9.842,0.676,19.782-0.466,29.119-3.47c20.216-6.505,36.509-21.265,45.878-41.562c6.564-14.223,7.915-29.944,3.802-44.268
	c-4.389-15.285-14.594-27.297-28.736-33.824c-8.823-4.072-16.634-5.245-21.625-5.514"/>
<g>
</g>
<g>
</g>
<g>
</g>
<g>
</g>
<g>
</g>
<g>
</g>
<g>
</g>
<g>
</g>
<g>
</g>
<g>
</g>
<g>
</g>
<g>
</g>
<g>
</g>
<g>
</g>
<g>
</g>
</svg>
