<?xml version="1.0" encoding="iso-8859-1"?>
<!-- Generator: Adobe Illustrator 19.0.0, SVG Export Plug-In . SVG Version: 6.00 Build 0)  -->
<svg version="1.1" id="Capa_1" xmlns="http://www.w3.org/2000/svg" xmlns:xlink="http://www.w3.org/1999/xlink" x="0px" y="0px"
	 viewBox="0 0 512 512" style="enable-background:new 0 0 512 512;" xml:space="preserve">
<rect x="91.666" style="fill:#56412D;" width="328.67" height="512"/>
<rect x="91.666" style="fill:#AC825A;" width="149.33" height="110.33"/>
<rect x="166.326" style="fill:#816244;" width="74.67" height="110.33"/>
<rect x="270.996" style="fill:#AC825A;" width="149.33" height="110.33"/>
<rect x="345.667" style="fill:#816244;" width="74.67" height="110.33"/>
<rect x="91.666" y="140.17" style="fill:#AC825A;" width="149.33" height="110.33"/>
<rect x="166.326" y="140.17" style="fill:#816244;" width="74.67" height="110.33"/>
<rect x="270.996" y="140.17" style="fill:#AC825A;" width="149.33" height="110.33"/>
<rect x="345.667" y="140.17" style="fill:#816244;" width="74.67" height="110.33"/>
<rect x="91.666" y="280.33" style="fill:#AC825A;" width="149.33" height="110.33"/>
<rect x="166.326" y="280.33" style="fill:#816244;" width="74.67" height="110.33"/>
<rect x="270.996" y="280.33" style="fill:#AC825A;" width="149.33" height="110.33"/>
<rect x="345.667" y="280.33" style="fill:#816244;" width="74.67" height="110.33"/>
<polygon style="fill:#FFC42D;" points="420.329,368.587 420.329,339.874 91.663,280.333 91.663,368.587 "/>
<polygon style="fill:#FF9900;" points="255.996,310.103 255.996,368.587 420.329,368.587 420.329,339.874 "/>
<polygon style="fill:#FC0023;" points="91.663,362.667 91.663,512 420.329,512 420.329,339.874 "/>
<polygon style="fill:#CC001C;" points="255.996,351.27 255.996,512 420.329,512 420.329,339.874 "/>
<g>
</g>
<g>
</g>
<g>
</g>
<g>
</g>
<g>
</g>
<g>
</g>
<g>
</g>
<g>
</g>
<g>
</g>
<g>
</g>
<g>
</g>
<g>
</g>
<g>
</g>
<g>
</g>
<g>
</g>
</svg>
