<?xml version="1.0" encoding="iso-8859-1"?>
<!-- Generator: Adobe Illustrator 19.0.0, SVG Export Plug-In . SVG Version: 6.00 Build 0)  -->
<svg version="1.1" id="Capa_1" xmlns="http://www.w3.org/2000/svg" xmlns:xlink="http://www.w3.org/1999/xlink" x="0px" y="0px"
	 viewBox="0 0 511.996 511.996" style="enable-background:new 0 0 511.996 511.996;" xml:space="preserve">
<polygon style="fill:#816244;" points="270.834,225.008 270.618,0 240.618,0.028 240.834,225.008 "/>
<polygon style="fill:#56412D;" points="255.995,225.008 270.834,225.008 270.618,0 255.995,0.014 "/>
<polygon style="fill:#816244;" points="228.375,225.008 171.854,4.523 142.795,11.972 197.405,225.008 "/>
<path style="fill:#FFF6CD;" d="M86.692,291.107c-3.39,5.344-7.383,11.654-9.259,19.079h357.122
	c-1.875-7.426-5.868-13.736-9.259-19.079c-2.335-3.679-4.749-7.484-5.304-9.924c-0.616-2.712-0.081-7.354,0.436-11.843
	c0.97-8.417,2.177-18.89-2.558-28.703c-4.801-9.953-13.827-15.565-21.078-20.073c-3.77-2.343-7.666-4.767-9.308-6.822
	c-1.669-2.089-3.179-6.453-4.64-10.673c-2.785-8.043-6.25-18.053-14.836-24.908c-8.554-6.831-19.06-7.992-27.501-8.925
	c-4.462-0.494-9.075-1.004-11.525-2.186c-2.319-1.12-5.522-4.352-8.62-7.477c-6.036-6.092-13.549-13.673-24.404-16.141
	c-10.531-2.395-20.41,1.097-28.35,3.9c-4.307,1.521-8.761,3.093-11.617,3.093c-2.856,0-7.31-1.572-11.616-3.093
	c-7.941-2.804-17.827-6.294-28.349-3.9c-10.857,2.468-18.369,10.049-24.405,16.141c-3.098,3.126-6.301,6.358-8.62,7.478
	c-2.45,1.182-7.064,1.692-11.525,2.186c-8.441,0.933-18.947,2.095-27.501,8.925c-8.586,6.856-12.051,16.865-14.834,24.907
	c-1.461,4.22-2.972,8.585-4.641,10.673c-1.642,2.056-5.539,4.48-9.309,6.823c-7.252,4.509-16.278,10.122-21.078,20.073
	c-4.734,9.813-3.527,20.286-2.558,28.702c0.518,4.489,1.052,9.131,0.436,11.843C91.441,283.623,89.027,287.428,86.692,291.107z"/>
<path style="fill:#FFE981;" d="M255.995,310.187h178.561c-1.875-7.426-5.868-13.736-9.259-19.079
	c-2.335-3.679-4.749-7.484-5.304-9.924c-0.616-2.712-0.081-7.354,0.436-11.843c0.97-8.417,2.177-18.89-2.558-28.703
	c-4.801-9.953-13.827-15.565-21.078-20.073c-3.77-2.343-7.666-4.767-9.308-6.822c-1.669-2.089-3.179-6.453-4.64-10.673
	c-2.785-8.043-6.25-18.053-14.836-24.908c-8.554-6.831-19.06-7.992-27.501-8.925c-4.462-0.494-9.075-1.004-11.525-2.186
	c-2.319-1.12-5.522-4.352-8.62-7.477c-6.036-6.092-13.549-13.673-24.404-16.141c-10.531-2.395-20.41,1.097-28.35,3.9
	c-4.307,1.521-8.76,3.093-11.617,3.093v159.761H255.995z"/>
<rect x="183.33" y="215.344" style="fill:#80E471;" width="29.999" height="29.999"/>
<rect x="298.657" y="236.674" style="fill:#FF5D00;" width="29.999" height="29.999"/>
<path style="fill:#FF4F19;" d="M82.085,321.005v17.085c0,70.764,42.488,131.784,103.289,158.911h141.242
	c60.801-27.126,103.289-88.147,103.289-158.911v-17.085H82.085z"/>
<path style="fill:#FC0023;" d="M255.995,321.005V497h70.622c60.801-27.126,103.289-88.147,103.289-158.911v-17.085H255.995z"/>
<rect x="48.194" y="300.822" style="fill:#FFCE85;" width="415.609" height="29.999"/>
<rect id="SVGCleanerId_0" x="121.532" y="481.997" style="fill:#FFCE85;" width="268.933" height="29.999"/>
<g>
	<rect id="SVGCleanerId_0_1_" x="121.532" y="481.997" style="fill:#FFCE85;" width="268.933" height="29.999"/>
</g>
<g>
	<rect x="255.998" y="300.822" style="fill:#FFB23E;" width="207.804" height="29.999"/>
	<rect x="255.998" y="481.997" style="fill:#FFB23E;" width="134.466" height="29.999"/>
</g>
<g>
</g>
<g>
</g>
<g>
</g>
<g>
</g>
<g>
</g>
<g>
</g>
<g>
</g>
<g>
</g>
<g>
</g>
<g>
</g>
<g>
</g>
<g>
</g>
<g>
</g>
<g>
</g>
<g>
</g>
</svg>
