<?xml version="1.0" encoding="iso-8859-1"?>
<!-- Generator: Adobe Illustrator 19.0.0, SVG Export Plug-In . SVG Version: 6.00 Build 0)  -->
<svg version="1.1" id="Capa_1" xmlns="http://www.w3.org/2000/svg" xmlns:xlink="http://www.w3.org/1999/xlink" x="0px" y="0px"
	 viewBox="0 0 512 512" style="enable-background:new 0 0 512 512;" xml:space="preserve">
<path style="fill:#FF9900;" d="M449.523,186.045c-40.29-40.292-93.857-62.481-150.836-62.481h-5.948
	c-114.341,0-207.363,93.023-207.363,207.364v83.669l348.558,7.844l0.338,0.004c42.859,0,77.728-34.867,77.728-77.725v-7.837
	C512,279.905,489.813,226.336,449.523,186.045z"/>
<path style="fill:#CC001C;" d="M441.464,245.999c-3.002-6.043-5.838-11.751-8.249-17.383c-2.513-5.869-4.761-11.969-7.141-18.428
	c-7.382-20.035-15.016-40.752-31.495-56.713c-16.413-15.897-37.72-23.261-58.324-30.383c-6.681-2.309-12.99-4.49-19.073-6.934
	c-5.84-2.345-11.744-5.097-17.995-8.01c-18.699-8.715-39.895-18.593-63.839-18.593c-23.943,0-45.137,9.877-63.836,18.591
	c-6.252,2.914-12.157,5.666-17.998,8.011c-6.083,2.443-12.394,4.624-19.074,6.934c-20.604,7.122-41.909,14.486-58.322,30.383
	c-16.481,15.962-24.114,36.681-31.498,56.718c-2.379,6.457-4.626,12.556-7.138,18.423c-2.411,5.63-5.246,11.337-8.248,17.38
	c-9.054,18.222-19.315,38.876-19.315,62.368s10.26,44.144,19.313,62.366c3.002,6.043,5.838,11.751,8.249,17.382l3.894,9.097
	l384.947,0.001c0,0,12.141-20.436,15.143-26.48c9.053-18.221,19.313-38.873,19.313-62.365
	C460.776,284.872,450.517,264.22,441.464,245.999z"/>
<path style="fill:#870013;" d="M441.464,245.999c-3.002-6.043-5.838-11.751-8.249-17.383c-2.513-5.869-4.761-11.969-7.141-18.428
	c-7.382-20.035-15.016-40.752-31.495-56.713c-16.413-15.897-37.72-23.261-58.324-30.383c-6.681-2.309-12.99-4.49-19.073-6.934
	c-5.84-2.345-11.744-5.097-17.995-8.01c-18.699-8.715-39.895-18.593-63.839-18.593v307.653h190.973c0,0,12.141-20.436,15.143-26.48
	c9.053-18.221,19.313-38.873,19.313-62.365C460.776,284.872,450.517,264.22,441.464,245.999z"/>
<path style="fill:#FFE1B4;" d="M213.311,154.928C95.691,154.928,0,250.619,0,368.24v54.205h426.624V368.24
	C426.624,250.619,330.933,154.928,213.311,154.928z"/>
<path style="fill:#FFCB7D;" d="M213.333,154.928v267.517h213.291V368.24C426.624,250.626,330.944,154.94,213.333,154.928z"/>
<rect x="117.31" y="300.35" style="fill:#FFC42D;" width="30" height="30"/>
<rect x="279.31" y="300.35" style="fill:#FF9900;" width="30" height="30"/>
<rect x="198.31" y="247.02" style="fill:#FFC42D;" width="30" height="30"/>
<rect x="213.31" y="247.02" style="fill:#FF9900;" width="15" height="30"/>
<g>
</g>
<g>
</g>
<g>
</g>
<g>
</g>
<g>
</g>
<g>
</g>
<g>
</g>
<g>
</g>
<g>
</g>
<g>
</g>
<g>
</g>
<g>
</g>
<g>
</g>
<g>
</g>
<g>
</g>
</svg>
