<?xml version="1.0" encoding="iso-8859-1"?>
<!-- Generator: Adobe Illustrator 19.0.0, SVG Export Plug-In . SVG Version: 6.00 Build 0)  -->
<svg version="1.1" id="Capa_1" xmlns="http://www.w3.org/2000/svg" xmlns:xlink="http://www.w3.org/1999/xlink" x="0px" y="0px"
	 viewBox="0 0 512.001 512.001" style="enable-background:new 0 0 512.001 512.001;" xml:space="preserve">
<rect x="48.2" y="367.322" style="fill:#FFC42D;" width="415.6" height="101.01"/>
<rect x="256" y="367.322" style="fill:#FF9900;" width="207.8" height="101.01"/>
<path style="fill:#FFC42D;" d="M256,43.669L256,43.669c-114.141,0-207,92.86-207,207v79h414v-79
	C463,136.529,370.141,43.669,256,43.669z"/>
<path style="fill:#FF9900;" d="M256,43.669L256,43.669v286h207v-79C463,136.529,370.141,43.669,256,43.669z"/>
<path style="fill:#FF5D00;" d="M442.775,249.594H69.225C31.054,249.594,0,280.648,0,318.819c0,38.17,31.054,69.225,69.225,69.225
	h373.55c38.171,0,69.226-31.054,69.226-69.225C512,280.648,480.946,249.594,442.775,249.594z"/>
<rect x="160" y="156.672" style="fill:#FFFFFF;" width="30" height="30"/>
<rect x="322" y="156.672" style="fill:#FFE1B4;" width="30" height="30"/>
<rect x="241" y="103.332" style="fill:#FFFFFF;" width="30" height="30"/>
<rect x="256" y="103.332" style="fill:#FFE1B4;" width="15" height="30"/>
<path style="fill:#E34400;" d="M442.775,249.594H256v138.45h186.775c38.171,0,69.226-31.054,69.226-69.225
	C512,280.648,480.946,249.594,442.775,249.594z"/>
<path style="fill:#FFF1AB;" d="M373.334,356.152L373.334,356.152c-17.673,0-32-14.327-32-32v-74.667h64v74.667
	C405.333,341.825,391.007,356.152,373.334,356.152z"/>
<g>
	<polygon style="fill:#CC001C;" points="141.157,281.486 88.89,356.152 125.51,356.152 177.777,281.486 	"/>
	<polygon style="fill:#CC001C;" points="263.824,281.486 211.557,356.152 248.177,356.152 300.443,281.486 	"/>
</g>
<polygon style="fill:#870013;" points="256,344.976 300.443,281.486 263.824,281.486 256,292.662 "/>
<path style="fill:#FFDB2D;" d="M373.333,249.486v106.666l0,0c17.673,0,32-14.327,32-32v-74.667L373.333,249.486L373.333,249.486z"/>
<g>
</g>
<g>
</g>
<g>
</g>
<g>
</g>
<g>
</g>
<g>
</g>
<g>
</g>
<g>
</g>
<g>
</g>
<g>
</g>
<g>
</g>
<g>
</g>
<g>
</g>
<g>
</g>
<g>
</g>
</svg>
