<?xml version="1.0" encoding="iso-8859-1"?>
<!-- Generator: Adobe Illustrator 19.0.0, SVG Export Plug-In . SVG Version: 6.00 Build 0)  -->
<svg version="1.1" id="Capa_1" xmlns="http://www.w3.org/2000/svg" xmlns:xlink="http://www.w3.org/1999/xlink" x="0px" y="0px"
	 viewBox="0 0 512 512" style="enable-background:new 0 0 512 512;" xml:space="preserve">
<path style="fill:#FFE1B4;" d="M373.149,282.061c15.918-25.353,24.489-56.357,24.489-89.76c0-44.465-14.461-91.316-39.675-128.539
	C330.112,22.645,293.901,0,256,0s-74.113,22.645-101.965,63.762c-25.214,37.223-39.675,84.073-39.675,128.539
	c0,33.404,8.572,64.408,24.489,89.76L373.149,282.061L373.149,282.061z"/>
<path style="fill:#FFCB7D;" d="M373.149,282.061c15.918-25.353,24.489-56.357,24.489-89.76c0-44.465-14.461-91.316-39.675-128.539
	C330.112,22.645,293.901,0,256,0v282.061H373.149z"/>
<path style="fill:#B7E4F8;" d="M95.362,222.831v14.986c0,28.286,7.46,56.106,21.573,80.449
	c12.738,21.971,30.613,40.717,51.916,54.503l17.467,52.005c-26.111,8.389-45.059,32.908-45.059,61.771v24.961h229.477v-24.961
	c0-28.862-18.948-53.381-45.06-61.771l17.467-52.005c21.303-13.787,39.179-32.533,51.917-54.503
	c14.114-24.345,21.574-52.163,21.574-80.449v-14.986L95.362,222.831L95.362,222.831z"/>
<path style="fill:#93D6F4;" d="M332.272,405.145l10.875-32.375c21.303-13.787,39.179-32.533,51.917-54.503
	c14.114-24.345,21.574-52.163,21.574-80.449v-14.986H256v182.313H332.272z"/>
<path style="fill:#4BBAED;" d="M158.462,442.607h195.075c-7.512-8.141-17.071-14.366-27.858-17.832l16.858-50.191
	c-25.19,15.45-54.821,24.365-86.538,24.365s-61.348-8.913-86.538-24.365l16.858,50.192
	C175.531,428.241,165.972,434.466,158.462,442.607z"/>
<path style="fill:#B7E4F8;" d="M325.491,424.475l-139.358,0.599c-26.075,8.502-44.917,33.102-44.793,61.964L141.448,512
	l229.475-0.988l-0.108-24.961C370.692,457.19,351.638,432.752,325.491,424.475z"/>
<path style="fill:#93D6F4;" d="M256.131,511.506l114.791-0.493l-0.108-24.961c-0.124-28.862-19.178-53.3-45.324-61.577
	l-69.359,0.299V511.506z"/>
<g>
</g>
<g>
</g>
<g>
</g>
<g>
</g>
<g>
</g>
<g>
</g>
<g>
</g>
<g>
</g>
<g>
</g>
<g>
</g>
<g>
</g>
<g>
</g>
<g>
</g>
<g>
</g>
<g>
</g>
</svg>
