<?xml version="1.0" encoding="iso-8859-1"?>
<!-- Generator: Adobe Illustrator 19.0.0, SVG Export Plug-In . SVG Version: 6.00 Build 0)  -->
<svg version="1.1" id="Capa_1" xmlns="http://www.w3.org/2000/svg" xmlns:xlink="http://www.w3.org/1999/xlink" x="0px" y="0px"
	 viewBox="0 0 512 512" style="enable-background:new 0 0 512 512;" xml:space="preserve">
<polygon style="fill:#FC0023;" points="449.104,142.491 401.61,123.567 401.61,59.369 110.387,59.369 110.387,123.567 
	62.892,142.491 62.892,181.333 95.998,362.666 62.892,469.333 62.892,512 449.104,512 449.104,480 415.998,362.667 449.104,181.333 
	"/>
<polygon style="fill:#CC001C;" points="449.104,142.491 401.61,123.567 401.61,59.369 249.053,59.369 249.053,123.567 
	255.998,123.567 255.998,512 449.104,512 449.104,469.333 415.998,362.667 449.104,192 "/>
<rect x="62.892" style="fill:#E1E1E3;" width="386.21" height="89.37"/>
<rect x="254.888" style="fill:#BFBFBF;" width="194.21" height="89.37"/>
<rect x="208.998" style="fill:#FFC42D;" width="94" height="217.67"/>
<rect x="255.998" style="fill:#FF9900;" width="47" height="217.67"/>
<rect x="62.892" y="181.33" style="fill:#FFEBCC;" width="386.21" height="293.23"/>
<rect x="255.998" y="181.33" style="fill:#FFD699;" width="193.11" height="293.23"/>
<path style="fill:#FC0023;" d="M220.663,329.017c-5.69-2.167-10.839-2.987-14.862-3.219c-3.158-2.503-7.548-5.314-13.238-7.48
	c-12.243-4.662-25.443-3.743-37.169,2.586c-10.721,5.787-19.115,15.513-23.636,27.387c-6.279,16.489-5.582,33.886,1.96,48.986
	c6.822,13.656,18.996,24.634,33.4,30.119c7.08,2.695,14.639,4.042,22.18,4.042c7.802,0,15.584-1.441,22.793-4.32
	c15.676-6.259,27.766-18.787,34.044-35.277C256.042,365.824,244.853,338.228,220.663,329.017z"/>
<path style="fill:#CC001C;" d="M380.239,348.291c-4.521-11.875-12.915-21.601-23.636-27.388c-11.726-6.329-24.926-7.248-37.17-2.586
	c-5.689,2.167-10.08,4.978-13.238,7.48c-4.023,0.231-9.173,1.052-14.862,3.219c-24.189,9.21-35.378,36.806-25.473,62.823l0,0
	c10.282,27.006,33.916,39.561,56.965,39.561c7.579,0,15.098-1.358,22.054-4.007c14.404-5.484,26.578-16.462,33.399-30.118
	C385.821,382.177,386.517,364.78,380.239,348.291z"/>
<polygon style="fill:#816244;" points="325.298,333.2 270.998,244.351 270.998,224.462 240.998,224.462 240.998,244.35 
	186.699,333.201 212.296,348.845 255.998,277.336 299.701,348.845 "/>
<polygon style="fill:#56412D;" points="270.998,244.351 270.998,224.462 255.998,224.462 255.998,277.336 255.998,277.336 
	299.701,348.845 325.298,333.2 "/>
<g>
</g>
<g>
</g>
<g>
</g>
<g>
</g>
<g>
</g>
<g>
</g>
<g>
</g>
<g>
</g>
<g>
</g>
<g>
</g>
<g>
</g>
<g>
</g>
<g>
</g>
<g>
</g>
<g>
</g>
</svg>
