<?xml version="1.0" encoding="iso-8859-1"?>
<!-- Generator: Adobe Illustrator 19.0.0, SVG Export Plug-In . SVG Version: 6.00 Build 0)  -->
<svg version="1.1" id="Capa_1" xmlns="http://www.w3.org/2000/svg" xmlns:xlink="http://www.w3.org/1999/xlink" x="0px" y="0px"
	 viewBox="0 0 512 512" style="enable-background:new 0 0 512 512;" xml:space="preserve">
<path style="fill:#60DD4D;" d="M270.719,102.556c0.029-2.123,0.078-16.082-3.38-32.639c-5.235-25.068-15.587-43.568-30.77-54.987
	c-15.146-11.392-35.66-16.304-60.974-14.6c-17.813,1.199-31.707,5.4-32.29,5.578l-10.158,3.107l-0.441,10.613
	c-0.076,1.828-1.479,45.24,31.977,86.009l0,0c33.78,41.166,86.509,50.468,88.738,50.844l17.584,2.966L270.719,102.556z"/>
<path style="fill:#00C47A;" d="M270.719,102.556c0.029-2.123,0.078-16.082-3.38-32.639c-5.235-25.068-15.587-43.568-30.77-54.987
	c-15.146-11.392-35.66-16.304-60.974-14.6c-17.813,1.199-31.707,5.4-32.29,5.578l-10.158,3.107l137.857,150.433L270.719,102.556z"/>
<path style="fill:#60DD4D;" d="M241.282,102.556c-0.029-2.123-0.078-16.082,3.38-32.639c5.235-25.068,15.587-43.568,30.77-54.987
	c15.146-11.392,35.66-16.304,60.974-14.6c17.813,1.199,31.708,5.4,32.29,5.578l10.158,3.107l0.441,10.613
	c0.076,1.828,1.478,45.24-31.977,86.009l0,0c-33.78,41.166-86.509,50.468-88.738,50.844l-17.583,2.966L241.282,102.556z"/>
<path style="fill:#00935C;" d="M241.282,102.556c-0.029-2.123-0.078-16.082,3.38-32.639c5.235-25.068,15.587-43.568,30.77-54.987
	c15.146-11.392,35.66-16.304,60.974-14.6c17.813,1.199,31.708,5.4,32.29,5.578l10.158,3.107L240.998,159.447L241.282,102.556z"/>
<path style="fill:#FFB92D;" d="M323.59,153.599c-20.184-24.12-47.764-26.91-66.753-26.91c-18.989,0-46.568,2.789-66.753,26.91
	c-17.751,21.213-26.381,55.464-26.381,104.709c0,100.609,76.595,247.488,79.856,253.691h26.556
	c0.813-1.546,20.134-38.447,39.739-88.047c26.619-67.349,40.116-123.079,40.116-165.644
	C349.97,209.063,341.341,174.813,323.59,153.599z"/>
<g>
	<path style="fill:#FF9900;" d="M323.59,153.599c-20.184-24.12-47.764-26.91-66.753-26.91c-0.275,0-0.558,0.003-0.837,0.004V512
		h14.115c0.813-1.546,20.134-38.447,39.739-88.047c26.619-67.349,40.116-123.079,40.116-165.644
		C349.97,209.063,341.341,174.813,323.59,153.599z"/>
	<path style="fill:#FF9900;" d="M213.332,235.83h-48.961c-0.443,7.116-0.667,14.603-0.667,22.479c0,2.478,0.06,4.991,0.15,7.522
		h49.478V235.83z"/>
</g>
<path style="fill:#FF5D00;" d="M288.001,337.016v30.001h42.095c3.226-10.356,6.071-20.365,8.514-30.001H288.001z"/>
<g>
</g>
<g>
</g>
<g>
</g>
<g>
</g>
<g>
</g>
<g>
</g>
<g>
</g>
<g>
</g>
<g>
</g>
<g>
</g>
<g>
</g>
<g>
</g>
<g>
</g>
<g>
</g>
<g>
</g>
</svg>
