<?xml version="1.0" encoding="iso-8859-1"?>
<!-- Generator: Adobe Illustrator 19.0.0, SVG Export Plug-In . SVG Version: 6.00 Build 0)  -->
<svg version="1.1" id="Capa_1" xmlns="http://www.w3.org/2000/svg" xmlns:xlink="http://www.w3.org/1999/xlink" x="0px" y="0px"
	 viewBox="0 0 512 512" style="enable-background:new 0 0 512 512;" xml:space="preserve">
<path style="fill:#816244;" d="M259.345,20.317h-69.687l18.753,64.197V197.35H310V80.906L259.345,20.317z"/>
<path style="fill:#FF9900;" d="M232.841,208.488c-25.657-35.305-60.226-54.749-97.341-54.749s-71.684,19.443-97.341,54.749
	C13.552,242.349,0,287.121,0,334.555c0,47.237,13.546,87.168,39.174,115.473c24.32,26.861,58.529,41.655,96.326,41.655
	s72.006-14.793,96.326-41.655C257.454,421.723,271,381.793,271,334.555C271,287.121,257.448,242.349,232.841,208.488z"/>
<path style="fill:#FF5D00;" d="M473.841,208.488c-25.657-35.305-60.226-54.749-97.341-54.749s-71.684,19.443-97.341,54.749
	C254.552,242.349,241,287.121,241,334.555c0,47.237,13.546,87.168,39.174,115.473c24.32,26.861,58.529,41.655,96.326,41.655
	s72.006-14.793,96.326-41.655C498.454,421.723,512,381.793,512,334.555C512,287.121,498.448,242.349,473.841,208.488z"/>
<path style="fill:#FFC42D;" d="M353.824,175.363c-25.615-39.846-60.356-61.79-97.824-61.79s-72.209,21.944-97.824,61.79
	C133.88,213.156,120.5,263.108,120.5,316.017c0,52.568,13.343,97.014,38.586,128.531c24.345,30.396,58.763,47.135,96.914,47.135
	s72.569-16.74,96.914-47.135c25.243-31.518,38.586-75.963,38.586-128.531C391.5,263.108,378.12,213.156,353.824,175.363z"/>
<path style="fill:#FF9900;" d="M256,491.683c38.151,0,72.569-16.74,96.914-47.135c25.243-31.518,38.586-75.963,38.586-128.531
	c0-52.909-13.38-102.861-37.676-140.654c-25.615-39.846-60.356-61.79-97.824-61.79"/>
<g>
</g>
<g>
</g>
<g>
</g>
<g>
</g>
<g>
</g>
<g>
</g>
<g>
</g>
<g>
</g>
<g>
</g>
<g>
</g>
<g>
</g>
<g>
</g>
<g>
</g>
<g>
</g>
<g>
</g>
</svg>
