<?xml version="1.0" encoding="iso-8859-1"?>
<!-- Generator: Adobe Illustrator 19.0.0, SVG Export Plug-In . SVG Version: 6.00 Build 0)  -->
<svg version="1.1" id="Capa_1" xmlns="http://www.w3.org/2000/svg" xmlns:xlink="http://www.w3.org/1999/xlink" x="0px" y="0px"
	 viewBox="0 0 512 512" style="enable-background:new 0 0 512 512;" xml:space="preserve">
<path style="fill:#FFB92D;" d="M256,95.587c-114.806,0-208.207,93.401-208.207,208.206S141.196,512,256,512
	s208.206-93.401,208.206-208.207S370.807,95.587,256,95.587z"/>
<path style="fill:#FF9900;" d="M256,512c114.806,0,208.206-93.401,208.206-208.207S370.807,95.587,256,95.587V512z"/>
<polygon style="fill:#816244;" points="270.815,159.34 240.814,159.34 240.814,109.332 195.74,12.68 222.928,0 270.815,102.681 "/>
<path style="fill:#60DD4D;" d="M410.511,53.801l-0.172-11.549l-11.044-3.378c-0.659-0.201-16.348-4.945-36.49-6.301
	c-28.518-1.921-51.606,3.592-68.609,16.382c-17.043,12.818-28.674,33.639-34.573,61.883c-4.159,19.915-3.833,36.485-3.818,37.18
	l0.26,11.353l10.832,3.409c0.654,0.206,16.244,5.057,36.29,6.513c3.902,0.283,7.703,0.425,11.401,0.425
	c23.209,0,42.363-5.573,57.053-16.621c17.017-12.799,28.724-33.653,34.795-61.981C410.718,71.135,410.521,54.5,410.511,53.801z"/>
<path style="fill:#00C47A;" d="M256.065,159.371l10.832,3.409c0.654,0.206,16.244,5.057,36.29,6.513
	c3.902,0.283,7.703,0.425,11.401,0.425c23.209,0,42.363-5.573,57.053-16.621c17.017-12.799,28.724-33.653,34.795-61.981
	c4.282-19.981,4.086-36.617,4.076-37.315l-0.172-11.549"/>
<g>
</g>
<g>
</g>
<g>
</g>
<g>
</g>
<g>
</g>
<g>
</g>
<g>
</g>
<g>
</g>
<g>
</g>
<g>
</g>
<g>
</g>
<g>
</g>
<g>
</g>
<g>
</g>
<g>
</g>
</svg>
