<?xml version="1.0" encoding="iso-8859-1"?>
<!-- Generator: Adobe Illustrator 19.0.0, SVG Export Plug-In . SVG Version: 6.00 Build 0)  -->
<svg version="1.1" id="Capa_1" xmlns="http://www.w3.org/2000/svg" xmlns:xlink="http://www.w3.org/1999/xlink" x="0px" y="0px"
	 viewBox="0 0 512 512" style="enable-background:new 0 0 512 512;" xml:space="preserve">
<polygon style="fill:#838286;" points="100.3,49.486 117.43,92.313 117.43,149.333 147.43,149.333 147.43,86.536 132.61,49.486 "/>
<path style="fill:#E2F4FC;" d="M168.823,199.684V116.5H96.038v83.184L77.06,215.95c-11.053,9.474-17.415,23.306-17.415,37.864V497
	h145.571V253.815c0-14.558-6.362-28.39-17.415-37.864L168.823,199.684z"/>
<path style="fill:#B7E4F8;" d="M187.801,215.95l-18.978-16.267V116.5H132.43V497h72.786V253.814
	C205.216,239.256,198.855,225.425,187.801,215.95z"/>
<rect x="59.65" y="276.38" style="fill:#FFC42D;" width="145.57" height="220.62"/>
<rect x="59.65" y="276.38" style="fill:#FFDB2D;" width="145.57" height="220.62"/>
<rect x="132.43" y="276.38" style="fill:#FFC42D;" width="72.79" height="220.62"/>
<polygon style="fill:#333333;" points="347.438,49.486 364.569,92.313 364.569,149.333 394.569,149.333 394.569,86.536 
	379.749,49.486 "/>
<path style="fill:#E2F4FC;" d="M415.962,199.684V116.5h-72.785v83.184l-18.978,16.267c-11.053,9.474-17.415,23.306-17.415,37.864
	V497h145.571V253.815c0-14.558-6.362-28.39-17.415-37.864L415.962,199.684z"/>
<path style="fill:#B7E4F8;" d="M434.94,215.95l-18.978-16.267V116.5h-36.393V497h72.786V253.814
	C452.355,239.256,445.993,225.425,434.94,215.95z"/>
<rect x="306.78" y="276.38" style="fill:#FC0023;" width="145.57" height="220.62"/>
<rect x="379.57" y="276.38" style="fill:#CC001C;" width="72.79" height="220.62"/>
<polygon style="fill:#DFDEE0;" points="490.667,399 490.667,369 271,369 271,0 240.999,0 240.999,369 21.333,369 21.333,399 
	240.999,399 240.999,482 21.333,482 21.333,512 490.667,512 490.667,482 271,482 271,399 "/>
<polygon style="fill:#CBCACE;" points="490.667,399 490.667,369 271,369 271,0 255.73,0 255.73,512 490.667,512 490.667,482 
	271,482 271,399 "/>
<g>
</g>
<g>
</g>
<g>
</g>
<g>
</g>
<g>
</g>
<g>
</g>
<g>
</g>
<g>
</g>
<g>
</g>
<g>
</g>
<g>
</g>
<g>
</g>
<g>
</g>
<g>
</g>
<g>
</g>
</svg>
