<?xml version="1.0" encoding="iso-8859-1"?>
<!-- Generator: Adobe Illustrator 19.0.0, SVG Export Plug-In . SVG Version: 6.00 Build 0)  -->
<svg version="1.1" id="Capa_1" xmlns="http://www.w3.org/2000/svg" xmlns:xlink="http://www.w3.org/1999/xlink" x="0px" y="0px"
	 viewBox="0 0 512 512" style="enable-background:new 0 0 512 512;" xml:space="preserve">
<polygon style="fill:#FC0023;" points="204.158,120.97 186.839,0 56.5,0 56.5,30 160.828,30 173.852,120.97 "/>
<path style="fill:#FFC42D;" d="M355.166,17c-55.324,0-100.333,45.009-100.333,100.334s45.009,100.334,100.333,100.334
	S455.5,172.659,455.5,117.334S410.491,17,355.166,17z"/>
<path style="fill:#FF9900;" d="M355.166,217.667c55.324,0,100.334-45.009,100.334-100.334S410.491,17,355.166,17V217.667z"/>
<path style="fill:#E2F4FC;" d="M369.845,108.667H105.822l52.212,324.888c-5.88,8.781-15.628,26.478-15.628,47.301V512h190.856
	v-31.144c0-20.822-9.747-38.52-15.628-47.301L369.845,108.667z"/>
<polygon style="fill:#FFDB2D;" points="383.167,138.5 337.5,138.5 337.5,92.834 367.5,92.834 367.5,108.5 383.167,108.5 "/>
<path style="fill:#C5E9F9;" d="M369.845,108.667H237.833V512h95.428v-31.144c0-20.822-9.747-38.52-15.628-47.301L369.845,108.667z"
	/>
<path style="fill:#949DF0;" d="M142.418,480h190.831c-0.262-20.45-9.816-37.785-15.616-46.445l34.641-215.556H123.392
	l34.641,215.556C152.234,442.215,142.68,459.55,142.418,480z"/>
<path style="fill:#5B64B1;" d="M352.274,217.999H237.833v262h95.415c-0.262-20.45-9.816-37.785-15.616-46.445L352.274,217.999z"/>
<g>
</g>
<g>
</g>
<g>
</g>
<g>
</g>
<g>
</g>
<g>
</g>
<g>
</g>
<g>
</g>
<g>
</g>
<g>
</g>
<g>
</g>
<g>
</g>
<g>
</g>
<g>
</g>
<g>
</g>
</svg>
