<?xml version="1.0" encoding="iso-8859-1"?>
<!-- Generator: Adobe Illustrator 19.0.0, SVG Export Plug-In . SVG Version: 6.00 Build 0)  -->
<svg version="1.1" id="Capa_1" xmlns="http://www.w3.org/2000/svg" xmlns:xlink="http://www.w3.org/1999/xlink" x="0px" y="0px"
	 viewBox="0 0 512 512" style="enable-background:new 0 0 512 512;" xml:space="preserve">
<rect x="167.526" y="3.243" transform="matrix(-0.9975 0.0712 -0.0712 -0.9975 450.0632 333.7678)" style="fill:#FFDB2D;" width="103.114" height="343.323"/>
<polygon style="fill:#FFC42D;" points="258.269,0 205.595,3.761 230.363,346.181 282.718,342.443 "/>
<rect x="101.76" y="186.909" transform="matrix(-0.1041 0.9946 -0.9946 -0.1041 539.0527 -8.646)" style="fill:#FFDB2D;" width="343.321" height="103.113"/>
<polygon style="fill:#FFC42D;" points="253.66,408.997 306.817,414.559 342.544,73.108 291.318,67.748 "/>
<rect x="92.485" y="64.795" transform="matrix(-0.9575 0.2884 -0.2884 -0.9575 350.1519 421.3076)" style="fill:#FFDB2D;" width="103.109" height="343.307"/>
<g>
	<polygon style="fill:#FFC42D;" points="143.901,57.228 95.698,71.745 196.265,400.004 242.905,385.958 	"/>
	
		<rect x="316.405" y="64.801" transform="matrix(0.9575 0.2884 -0.2884 0.9575 83.829 -96.0736)" style="fill:#FFC42D;" width="103.109" height="343.307"/>
</g>
<polygon style="fill:#FFDB2D;" points="368.085,57.228 416.288,71.745 315.721,400.004 269.081,385.958 "/>
<path style="fill:#FF4F19;" d="M323.974,204.829l-3.191,10.72c-8.417,28.273-34.913,48.018-64.432,48.018
	s-56.015-19.746-64.432-48.018l-3.191-10.72H80.369L125.935,512h273.134l32.548-307.171L323.974,204.829L323.974,204.829z"/>
<path style="fill:#FC0023;" d="M323.974,204.829l-3.191,10.72c-8.417,28.273-34.913,48.018-64.432,48.018
	c-0.12,0-0.238-0.007-0.358-0.007V512H399.07l32.548-307.171L323.974,204.829L323.974,204.829z"/>
<ellipse style="fill:#FFFFFF;" cx="255.993" cy="378.42" rx="52.864" ry="41.12"/>
<path style="fill:#FFE1B4;" d="M255.993,337.306c29.196,0,52.864,18.409,52.864,41.117s-23.668,41.117-52.864,41.117"/>
<path style="fill:#B7E4F8;" d="M255.993,434.539c-17.439,0-33.985-5.399-46.59-15.203c-13.52-10.516-21.275-25.428-21.275-40.914
	s7.754-30.398,21.275-40.915c12.604-9.803,29.15-15.202,46.59-15.202s33.985,5.399,46.59,15.202
	c13.52,10.516,21.274,25.429,21.274,40.915c0,15.486-7.754,30.398-21.274,40.914C289.978,429.14,273.433,434.539,255.993,434.539z
	 M255.993,352.306c-20.524,0-37.864,11.96-37.864,26.117s17.34,26.117,37.864,26.117s37.864-11.96,37.864-26.117
	S276.517,352.306,255.993,352.306z"/>
<path style="fill:#4BBAED;" d="M302.583,337.508c-12.604-9.803-29.15-15.202-46.59-15.202v30c20.524,0,37.864,11.96,37.864,26.117
	s-17.34,26.117-37.864,26.117v30c17.44,0,33.985-5.399,46.59-15.203c13.52-10.516,21.274-25.428,21.274-40.914
	C323.857,362.936,316.103,348.024,302.583,337.508z"/>
<g>
</g>
<g>
</g>
<g>
</g>
<g>
</g>
<g>
</g>
<g>
</g>
<g>
</g>
<g>
</g>
<g>
</g>
<g>
</g>
<g>
</g>
<g>
</g>
<g>
</g>
<g>
</g>
<g>
</g>
</svg>
