<?xml version="1.0" encoding="iso-8859-1"?>
<!-- Generator: Adobe Illustrator 19.0.0, SVG Export Plug-In . SVG Version: 6.00 Build 0)  -->
<svg version="1.1" id="Capa_1" xmlns="http://www.w3.org/2000/svg" xmlns:xlink="http://www.w3.org/1999/xlink" x="0px" y="0px"
	 viewBox="0 0 512 512" style="enable-background:new 0 0 512 512;" xml:space="preserve">
<path style="fill:#FFF8D5;" d="M507.742,270.989c-12.481-52.617-52.608-93.854-104.723-107.617l-0.003-0.001
	c-0.492-0.13-0.983-0.257-1.477-0.383c-32.83-8.346-60.743-30.36-76.582-60.398c-17-32.238-44.391-58.782-77.13-74.744
	c-34.698-16.917-73.548-21.59-112.354-13.513c-31.245,6.503-59.952,21.603-83.018,43.665c-23.158,22.152-39.444,50.198-47.098,81.11
	C-7.729,191.96,3.422,246.367,35.95,288.378c13.346,17.237,18.108,40.09,12.739,61.135c-2.714,10.639-3.975,21.653-3.747,32.735
	c1.319,64.259,52.633,116.605,116.818,119.171c1.689,0.067,3.372,0.101,5.05,0.101c25.424,0,49.674-7.717,70.42-22.46
	c30.067-21.367,66.33-30.017,102.102-24.358c7.715,1.22,15.615,1.839,23.48,1.839c45.926,0,88.617-20.684,117.128-56.751
	C508.466,363.708,518.599,316.762,507.742,270.989z"/>
<path style="fill:#FFF1AB;" d="M507.742,270.989c-12.481-52.617-52.608-93.854-104.723-107.617l-0.003-0.001
	c-0.492-0.13-0.983-0.257-1.477-0.383c-32.83-8.346-60.743-30.36-76.582-60.398c-17-32.238-44.391-58.782-77.13-74.744
	c-2.59-1.262-5.204-2.449-7.839-3.574v452.875c29.513-19.968,64.659-27.935,99.345-22.447c7.715,1.22,15.615,1.839,23.48,1.839
	c45.926,0,88.617-20.684,117.128-56.751C508.466,363.708,518.599,316.762,507.742,270.989z"/>
<path style="fill:#FF9900;" d="M239.989,176.989c-52.394,0-95.02,42.626-95.02,95.02s42.626,95.02,95.02,95.02
	s95.02-42.626,95.02-95.02S292.383,176.989,239.989,176.989z"/>
<path style="fill:#FF5D00;" d="M239.989,367.028c52.394,0,95.02-42.626,95.02-95.02s-42.626-95.02-95.02-95.02V367.028z"/>
<g>
</g>
<g>
</g>
<g>
</g>
<g>
</g>
<g>
</g>
<g>
</g>
<g>
</g>
<g>
</g>
<g>
</g>
<g>
</g>
<g>
</g>
<g>
</g>
<g>
</g>
<g>
</g>
<g>
</g>
</svg>
